<?xml version="1.0" standalone="no"?><!DOCTYPE svg PUBLIC "-//W3C//DTD SVG 1.1//EN" "http://www.w3.org/Graphics/SVG/1.1/DTD/svg11.dtd"><svg t="1509263128086" class="icon" style="" viewBox="0 0 1026 1024" version="1.1" xmlns="http://www.w3.org/2000/svg" p-id="2375" xmlns:xlink="http://www.w3.org/1999/xlink" width="32.0625" height="32"><defs><style type="text/css"></style></defs><path d="M293.898682 339.394835a30.824186 30.824186 0 0 1 41.098915-41.098915l172.61544 172.61544 172.61544-172.61544a30.824186 30.824186 0 0 1 41.098914 41.098915L550.766897 512.010275 719.272446 684.625715a30.824186 30.824186 0 0 1-41.098915 41.098914L507.613037 555.164135 334.997597 723.669684a30.824186 30.824186 0 0 1-41.098915-41.098915L466.514123 512.010275 293.898682 339.394835z m213.714355 620.593606A445.92322 445.92322 0 0 0 824.074677 195.548634 445.92322 445.92322 0 0 0 61.689816 512.010275a445.92322 445.92322 0 0 0 447.978167 447.978166zM867.228537 871.625775A505.516646 505.516646 0 0 1 0.041445 512.010275 505.516646 505.516646 0 0 1 867.228537 152.394774a505.516646 505.516646 0 0 1 0 719.231001z" p-id="2376" fill="#ffffff"></path></svg>