<?xml version="1.0" standalone="no"?><!DOCTYPE svg PUBLIC "-//W3C//DTD SVG 1.1//EN" "http://www.w3.org/Graphics/SVG/1.1/DTD/svg11.dtd"><svg t="1505111072127" class="icon" style="" viewBox="0 0 1024 1024" version="1.1" xmlns="http://www.w3.org/2000/svg" p-id="6767" xmlns:xlink="http://www.w3.org/1999/xlink" width="48" height="48"><defs><style type="text/css"></style></defs><path d="M680.565648 635.853819c3.866051 2.835581 8.587586 4.562922 13.747095 4.562922 12.886495 0 23.335475-10.451026 23.335475-23.338544 0-8.100492-4.134157-15.229866-10.407024-19.413142l0.01842-0.025583c-27.847232-18.885116-58.514695-33.917484-91.233887-44.352137 75.292823-39.119973 126.763079-117.77231 126.763079-208.498638 0-129.717364-105.158015-234.879472-234.879472-234.879472s-234.885612 105.163131-234.885612 234.879472c0 90.722234 51.464115 169.368432 126.752846 208.494545-142.979412 45.572942-246.700705 179.057095-247.579725 336.944032-0.005117 0.171915 0.076748 2.02103 0.101307 2.030239 0.801249 12.17939 10.833743 21.831214 23.210631 21.831214 12.377912 0 22.603811-9.6815 23.411199-21.852704 0-170.634262 138.329509-308.962747 308.958654-308.962747 63.938218 0 123.338073 19.419282 172.624593 52.679803L680.565648 635.853819 680.565648 635.853819 680.565648 635.853819zM319.977104 344.789721c0-103.784738 84.133166-187.924043 187.930183-187.924043 103.789854 0 187.928137 84.139306 187.928137 187.924043 0 103.797018-84.139306 187.934277-187.928137 187.934277C404.110269 532.723997 319.977104 448.586738 319.977104 344.789721L319.977104 344.789721 319.977104 344.789721zM319.977104 344.789721M932.513868 690.185238c6.65149-6.655584 10.160407-14.871709 10.528797-24.659633 0.373507-9.795087-2.77009-18.012236-9.419534-24.665773-6.65149-6.653537-14.779611-9.883091-24.387433-9.695826-9.603729 0.180102-17.73185 3.597945-24.385387 10.245342l-156.291602 156.289556-53.761438-53.205782c-6.647397-6.649444-14.774495-10.06524-24.387433-10.253528-9.604752-0.186242-17.732873 3.049452-24.385387 9.697873-6.647397 6.653537-10.06524 14.502295-10.253528 23.554462-0.180102 9.05626 3.045359 16.906042 9.697873 23.554462l77.041654 77.585029c6.647397 6.655584 15.331173 9.889231 26.048259 9.700943 10.717086-0.184195 19.398816-3.597945 26.045189-10.251481l-2.215458 2.220574L932.513868 690.185238 932.513868 690.185238 932.513868 690.185238zM932.513868 690.185238" p-id="6768" fill="#f63d41"></path></svg>