<?xml version="1.0" standalone="no"?><!DOCTYPE svg PUBLIC "-//W3C//DTD SVG 1.1//EN" "http://www.w3.org/Graphics/SVG/1.1/DTD/svg11.dtd"><svg t="1504079576609" class="icon" style="" viewBox="0 0 1024 1024" version="1.1" xmlns="http://www.w3.org/2000/svg" p-id="11479" xmlns:xlink="http://www.w3.org/1999/xlink" width="32" height="32"><defs><style type="text/css"></style></defs><path d="M956.975 512.166c0 246.025-199.484 445.51-445.511 445.51-246.024 0-445.455-199.484-445.455-445.51 0-246.023 199.431-445.481 445.455-445.481 246.026 0 445.511 199.458 445.511 445.481z" fill="#1296db" p-id="11480" class="selected"></path><path d="M443.034 703.857a19.94 19.94 0 0 1-12.875-4.699L253.807 550.711c-8.45-7.113-9.534-19.73-2.421-28.181 7.114-8.45 19.729-9.533 28.181-2.421l162.308 136.627L742.098 356.51c7.811-7.811 20.474-7.811 28.284 0 7.811 7.81 7.811 20.474 0.001 28.284L457.18 697.999a19.958 19.958 0 0 1-14.146 5.858z" fill="#F2F2F2" p-id="11481"></path></svg>