<?xml version="1.0" standalone="no"?><!DOCTYPE svg PUBLIC "-//W3C//DTD SVG 1.1//EN" "http://www.w3.org/Graphics/SVG/1.1/DTD/svg11.dtd"><svg t="1504412284492" class="icon" style="" viewBox="0 0 1024 1024" version="1.1" xmlns="http://www.w3.org/2000/svg" p-id="5689" xmlns:xlink="http://www.w3.org/1999/xlink" width="200" height="200"><defs><style type="text/css"></style></defs><path d="M511.99742 0C230.396775 0 0 230.396775 0 511.99742c0 281.595484 230.396775 512.00258 511.99742 512.00258s512.00258-230.401935 512.00258-512.00258C1024 230.396775 793.592904 0 511.99742 0z m198.395645 531.200161H531.195001v179.198065c0 12.798387-6.399194 19.202742-19.202742 19.202742-12.798387 0-19.197581-6.399194-19.197581-19.202742v-179.198065H313.596613c-12.798387 0-25.601935-6.399194-25.601935-19.202741s6.399194-19.197581 19.202742-19.197581h184.32258V313.601774c0-12.803548 6.399194-19.202742 19.197581-19.202742 12.803548 0 19.202742 6.399194 19.202742 19.202742V492.799839h174.073549c12.798387 0 19.202742 6.399194 19.202741 19.197581s0 19.202742-12.803548 19.202741z" fill="#d81e06" p-id="5690"></path></svg>