<?xml version="1.0" standalone="no"?><!DOCTYPE svg PUBLIC "-//W3C//DTD SVG 1.1//EN" "http://www.w3.org/Graphics/SVG/1.1/DTD/svg11.dtd"><svg t="1509109065550" class="icon" style="" viewBox="0 0 1305 1024" version="1.1" xmlns="http://www.w3.org/2000/svg" p-id="2438" xmlns:xlink="http://www.w3.org/1999/xlink" width="40.78125" height="32"><defs><style type="text/css"></style></defs><path d="M542.524616 44.989801c63.146399 0 124.364663 12.372195 181.887337 36.634552 55.594539 23.458968 105.565354 57.201318 148.466342 100.102306 42.900989 42.900989 76.482661 92.871803 100.102307 148.466343 24.262357 57.522674 36.634552 118.740938 36.634552 181.887337s-12.372195 124.364663-36.634552 181.887337c-23.458968 55.594539-57.201318 105.565354-100.102307 148.466343-42.900989 42.900989-92.871803 76.482661-148.466342 100.102306-57.522674 24.262357-118.740938 36.634552-181.887337 36.634552s-124.364663-12.372195-181.887337-36.634552C305.042739 919.077358 255.071925 885.335007 212.170936 842.434019c-42.900989-42.900989-76.482661-92.871803-100.102306-148.466343C87.806273 636.284324 75.434078 575.226738 75.434078 512.080339s12.372195-124.364663 36.634552-181.887337c23.458968-55.594539 57.201318-105.565354 100.102306-148.466343 42.900989-42.900989 92.871803-76.482661 148.466343-100.102306C418.159952 57.361996 479.378217 44.989801 542.524616 44.989801M379.597266 817.689628c13.818296 0 27.475914-3.695591 39.526753-10.765416l392.053978-226.395105 0.160678-0.160678 0.160678-0.160678c24.423035-14.30033 38.884042-39.848109 38.884042-68.127412s-14.621685-53.666405-38.884042-68.127413l-0.160678-0.160677-0.160678-0.160678-392.053978-226.395105c-12.050839-7.069826-25.708458-10.765417-39.526753-10.765416-43.5437 0-78.892829 35.188451-78.892829 78.571473V739.118155c0 43.383022 35.349129 78.571473 78.892829 78.571473M542.524616 0C259.410227 0 30.444277 228.96595 30.444277 512.080339S259.410227 1024 542.524616 1024s512.080339-228.96595 512.080339-512.080339S825.478327 0 542.524616 0zM379.597266 772.699827c-17.674565 0-33.903028-14.139652-33.903028-33.581672V285.685235c0-19.442021 16.228464-33.581673 33.903028-33.581673 5.623725 0 11.408128 1.446101 16.871175 4.659658l392.214656 226.395104c22.334223 13.175584 22.334223 45.471834 0 58.647419L396.307763 768.040169c-5.302369 3.213557-11.086772 4.659658-16.710497 4.659658z" p-id="2439" fill="#8a8a8a"></path></svg>