<?xml version="1.0" standalone="no"?><!DOCTYPE svg PUBLIC "-//W3C//DTD SVG 1.1//EN" "http://www.w3.org/Graphics/SVG/1.1/DTD/svg11.dtd"><svg t="1503225866597" class="icon" style="" viewBox="0 0 1024 1024" version="1.1" xmlns="http://www.w3.org/2000/svg" p-id="1179" xmlns:xlink="http://www.w3.org/1999/xlink" width="32" height="32"><defs><style type="text/css"></style></defs><path d="M504.703928 0.118507C226.977812 0.118507 0.354664 230.640079 0.354664 516.785594 0.354664 792.578324 228.911199 1021.134856 504.703928 1021.134856 790.849441 1021.134856 1021.371014 794.511707 1021.371014 516.785594 1021.371014 228.675043 792.814482 0.118507 504.703928 0.118507ZM504.703928 997.862132C241.764372 997.862132 23.627392 779.725151 23.627392 516.785594 23.627392 243.405241 239.920672 23.391235 504.703928 23.391235 779.961308 23.391235 998.09829 241.528215 998.09829 516.785594 998.09829 781.568851 778.084282 997.862132 504.703928 997.862132Z" p-id="1180" fill="#f38608"></path><path d="M380.286944 753.959994C420.231022 778.763536 533.744719 718.307955 625.094895 568.700627 716.449494 419.085528 718.859294 289.660778 678.9528 264.853905 644.305859 243.365644 598.622479 202.1589 562.285362 279.179782 525.921715 356.228422 555.330107 368.093931 591.028296 390.278334 616.029408 405.773331 585.756584 467.798841 551.898907 523.247082 518.018016 578.642029 476.75076 633.804929 451.765123 618.339909 416.038193 596.157727 392.266299 575.05029 340.453408 642.463964 288.662625 709.902063 345.634476 732.456189 380.286944 753.959994L380.286944 753.959994 380.286944 753.959994Z" p-id="1181" fill="#f38608"></path></svg>