<?xml version="1.0" standalone="no"?><!DOCTYPE svg PUBLIC "-//W3C//DTD SVG 1.1//EN" "http://www.w3.org/Graphics/SVG/1.1/DTD/svg11.dtd"><svg t="1482379521021" class="icon" style="" viewBox="0 0 1024 1024" version="1.1" xmlns="http://www.w3.org/2000/svg" p-id="2070" xmlns:xlink="http://www.w3.org/1999/xlink" width="128" height="128"><defs><style type="text/css"></style></defs><path d="M370.991506 895.27091m-61.704007 0a60.3 60.3 0 1 0 123.408014 0 60.3 60.3 0 1 0-123.408014 0Z" p-id="2071" fill="#ffffff"></path><path d="M827.887679 892.405716m-61.704007 0a60.3 60.3 0 1 0 123.408014 0 60.3 60.3 0 1 0-123.408014 0Z" p-id="2072" fill="#ffffff"></path><path d="M905.65724 554.824423l51.573499-277.51454c8.493255-45.84311-26.912361-88.104727-73.47177-87.797742l-643.747777 4.809433C232.541221 153.287898 227.322474 127.705806 224.252623 117.268312c-19.954032-67.946038-126.477865-48.094334-138.654942-45.638453C71.988008 74.495053 63.290097 87.797742 66.052963 101.407415c2.762866 13.609673 16.065554 22.409913 29.777556 19.647047 30.289198-6.139702 75.518337-5.116419 80.020785 10.437494 9.107225 31.107825 42.261617 226.350355 98.54222 580.406515 7.776956 49.322274 49.731588 85.239532 99.770161 85.546517l518.293195 1.841911c0 0 0.102328 0 0.102328 0 13.916658 0 25.172779-11.256121 25.275107-25.172779 0-13.916658-11.256121-25.275107-25.172779-25.275107l-518.190866-1.841911c-25.070451-0.102328-46.150095-18.21445-50.140901-42.977915-1.739582-10.846807-3.376836-21.591286-5.116419-32.131108l500.9997-40.010393C862.781653 628.500849 897.880284 596.881383 905.65724 554.824423z" p-id="2073" fill="#ffffff"></path></svg>