<?xml version="1.0" standalone="no"?><!DOCTYPE svg PUBLIC "-//W3C//DTD SVG 1.1//EN" "http://www.w3.org/Graphics/SVG/1.1/DTD/svg11.dtd"><svg t="1506850653916" class="icon" style="" viewBox="0 0 1024 1024" version="1.1" xmlns="http://www.w3.org/2000/svg" p-id="2350" xmlns:xlink="http://www.w3.org/1999/xlink" width="310" height="310"><defs><style type="text/css"></style></defs><path d="M810.666667 254.464l-253.312 362.752 2.090666 106.752 103.168-28.8 253.354667-362.624zM841.002667 211.157333l42.325333-60.629333 105.301333 78.08-42.410666 60.586667z" p-id="2351" fill="#8bc1f3"></path><path d="M691.370667 717.909333l-162.901334 45.781334-4.736-164.010667 302.762667-429.226667a89.088 89.088 0 0 0-85.461333-64.426666H148.224A89.386667 89.386667 0 0 0 58.837333 195.413333v650.837334c0 49.408 40.021333 89.429333 89.386667 89.429333h592.810667a89.429333 89.429333 0 0 0 89.429333-89.429333v-325.546667l-139.093333 197.205333zM195.456 262.869333h359.424a42.24 42.24 0 1 1 0 84.48H195.456a42.24 42.24 0 0 1 0-84.48z m189.098667 504.490667H195.456a42.24 42.24 0 1 1 0-84.48h189.098667a42.24 42.24 0 1 1 0 84.48z m75.178666-210.005333H195.456a42.24 42.24 0 0 1 0-84.522667h264.277333a42.24 42.24 0 1 1 0 84.522667z" p-id="2352" fill="#8bc1f3"></path></svg>