<?xml version="1.0" standalone="no"?><!DOCTYPE svg PUBLIC "-//W3C//DTD SVG 1.1//EN" "http://www.w3.org/Graphics/SVG/1.1/DTD/svg11.dtd"><svg t="1481796145103" class="icon" style="" viewBox="0 0 1024 1024" version="1.1" xmlns="http://www.w3.org/2000/svg" p-id="8011" xmlns:xlink="http://www.w3.org/1999/xlink" width="128" height="128"><defs><style type="text/css"></style></defs><path d="M515.802606 62.818721C267.726577 62.818721 66.621327 263.923972 66.621327 512s201.105251 449.181279 449.181279 449.181279 449.181279-201.105251 449.181279-449.181279S763.878634 62.818721 515.802606 62.818721zM515.802606 919.819243c-225.232764 0-407.819243-182.586478-407.819243-407.819243S290.569842 104.179734 515.802606 104.179734s407.819243 182.586478 407.819243 407.819243S741.03537 919.819243 515.802606 919.819243z" p-id="8012" fill="#f2480c"></path><path d="M515.800783 451.951169c-16.580758 0-30.023444 13.443285-30.023444 30.023444 0 16.580758 13.442886 30.023444 30.023444 30.023444s30.023444-13.442886 30.023444-30.023444C545.824227 465.394654 532.381341 451.951169 515.800783 451.951169zM395.705408 451.951169c-16.580758 0-30.023444 13.443285-30.023444 30.023444 0 16.580758 13.442886 30.023444 30.023444 30.023444s30.023444-13.442886 30.023444-30.023444C425.729451 465.394654 412.286166 451.951169 395.705408 451.951169zM515.800783 271.808306c-132.651262 0-240.189951 94.103598-240.189951 210.166307 0 66.336024 35.205731 125.401977 90.071132 163.913866l0 106.300129 105.222659-63.843514c14.564525 2.403171 29.540172 3.796026 44.89616 3.796026 132.651262 0 240.190551-94.088208 240.190551-210.166307C755.990534 365.912503 648.451446 271.808306 515.800783 271.808306zM515.800783 662.117676c-17.533712 0-34.466032-2.036619-50.746394-5.511863l-70.668487 42.485195 0.945759-69.635387c-54.184063-32.574514-89.697385-86.435597-89.697385-147.480208 0-99.48375 94.095803-180.142863 210.166307-180.142863s210.166307 80.659113 210.166307 180.142863C725.96709 581.472753 631.871087 662.117676 515.800783 662.117676zM635.895959 451.951169c-16.580758 0-30.023444 13.443285-30.023444 30.023444 0 16.580758 13.442886 30.023444 30.023444 30.023444 16.580758 0 30.023644-13.442886 30.023644-30.023444C665.919403 465.394654 652.476117 451.951169 635.895959 451.951169z" p-id="8013" fill="#f2480c"></path></svg>