<?xml version="1.0" standalone="no"?><!DOCTYPE svg PUBLIC "-//W3C//DTD SVG 1.1//EN" "http://www.w3.org/Graphics/SVG/1.1/DTD/svg11.dtd"><svg t="1481793136591" class="icon" style="" viewBox="0 0 1025 1024" version="1.1" xmlns="http://www.w3.org/2000/svg" p-id="14920" xmlns:xlink="http://www.w3.org/1999/xlink" width="200.1953125" height="200"><defs><style type="text/css"></style></defs><path d="M512.008827 0c-282.760366 0-512.008827 229.230806-512.008827 512.008827C0 794.769194 229.248461 1024 512.008827 1024s512.008827-229.230806 512.008827-512.008827C1024.017655 229.230806 794.769194 0 512.008827 0zM512.008827 988.672609c-262.845675 0-476.681437-213.835761-476.681437-476.681437 0-262.845675 213.835761-476.681437 476.681437-476.681437s476.681437 213.835761 476.681437 476.681437C988.690264 774.836848 774.854503 988.672609 512.008827 988.672609z" p-id="14921" fill="#ffffff"></path><path d="M502.351615 231.843727c-129.251289 0-235.639523 33.809072-249.533905 77.293012-1.006327 3.177876-1.641903 6.391062-1.641903 9.657213l0 392.944398c0.953363 4.501991 3.760487 9.215841 6.655885 13.205841-2.012655-2.913053-3.654558-5.861416-4.731505-8.898053 1.094602 3.018982 2.71885 5.985 4.731505 8.898053 0.211858 0.300133 0.441372 0.600266 0.670885 0.918053 2.047965 2.824779 4.413717 5.614248 7.203186 8.333098 34.515267 33.738453 127.291598 57.960932 236.628196 57.960932 107.535801 0 199.040982-23.445665 234.862709-56.319029 6.850089-6.302788 11.899381-12.905709 14.371063-19.791107 0.158894-0.459027 0.105929-0.935708 0.247168-1.394735l0-9.445354 0-95.689385 0-9.4277 0-271.53187 0-19.508629c-1.95969-6.05562-5.773142-11.917036-11.140222-17.548939C707.60711 256.84302 613.489009 231.843727 502.351615 231.843727zM716.558128 707.165739c-12.852744 16.507302-84.407924 49.680799-214.206514 49.680799-137.77859 0-209.881071-37.357701-215.848416-52.505577l0-59.955932c43.784073 25.493629 123.937173 42.618851 215.848416 42.618851 90.746022 0 170.069344-16.701505 214.206514-41.665489L716.558128 707.165739zM716.558128 602.048654c-12.852744 16.507302-84.407924 49.680799-214.206514 49.680799-137.77859 0-209.881071-37.357701-215.848416-52.505577l0-90.075137c43.784073 25.493629 123.937173 42.618851 215.848416 42.618851 90.746022 0 170.069344-16.701505 214.206514-41.665489L716.558128 602.048654zM716.558128 466.812365c-12.852744 16.507302-84.407924 49.645489-214.206514 49.645489-137.77859 0-209.881071-37.322391-215.848416-52.470268l0-100.897571c43.784073 25.511284 123.937173 42.671816 215.848416 42.671816 90.798986 0 170.086999-16.736815 214.206514-41.718453L716.558128 466.812365zM716.558128 320.559439c-12.323098 16.419027-83.772349 49.857347-214.206514 49.857347-135.183324 0-207.179876-35.980621-215.495319-51.640489 8.315443-15.659868 80.311995-51.640489 215.495319-51.640489 130.434165 0 201.865761 33.43832 214.206514 49.857347L716.558128 320.559439z" p-id="14922" fill="#ffffff"></path></svg>