<?xml version="1.0" standalone="no"?><!DOCTYPE svg PUBLIC "-//W3C//DTD SVG 1.1//EN" "http://www.w3.org/Graphics/SVG/1.1/DTD/svg11.dtd"><svg t="1481795087804" class="icon" style="" viewBox="0 0 1024 1024" version="1.1" xmlns="http://www.w3.org/2000/svg" p-id="15650" xmlns:xlink="http://www.w3.org/1999/xlink" width="200" height="200"><defs><style type="text/css"></style></defs><path d="M511.999488 64.380286c-247.211335 0-447.617667 200.407356-447.617667 447.617667 0 247.210311 200.407356 447.620737 447.617667 447.620737 247.210311 0 447.617667-200.411449 447.617667-447.620737C959.617156 264.787642 759.2098 64.380286 511.999488 64.380286zM511.999488 771.899308c-34.307364 0-62.1065-27.808346-62.1065-62.105476l124.214023 0C574.107011 744.090962 546.290479 771.899308 511.999488 771.899308zM703.408913 673.337525 320.591087 673.337525c-16.319687 0-29.67281-13.356193-29.67281-29.67588s13.353123-29.671787 29.67281-29.671787c0 0 14.853289-5.310959 17.237593-48.313356l0-101.780081c0-84.96102 61.657268-156.222017 142.442176-171.238013l0-8.836249c0-17.449417 14.280238-31.728632 31.728632-31.728632 17.458627 0 31.728632 14.279215 31.728632 31.728632l0 8.836249c80.776721 15.017018 142.432966 86.278016 142.432966 171.238013l0 76.506465 0.026606-0.058328c0 0.154519-0.017396 0.300852-0.026606 0.455371l0 24.549116c2.330068 43.310412 17.264199 48.63979 17.264199 48.63979 16.318664 0.010233 29.653367 13.357216 29.653367 29.671787C733.078653 659.981333 719.727577 673.337525 703.408913 673.337525z" p-id="15651" fill="#d6204b"></path></svg>