<?xml version="1.0" standalone="no"?><!DOCTYPE svg PUBLIC "-//W3C//DTD SVG 1.1//EN" "http://www.w3.org/Graphics/SVG/1.1/DTD/svg11.dtd"><svg t="1506447550763" class="icon" style="" viewBox="0 0 1024 1024" version="1.1" xmlns="http://www.w3.org/2000/svg" p-id="2324" xmlns:xlink="http://www.w3.org/1999/xlink" width="310" height="310"><defs><style type="text/css"></style></defs><path d="M27.497865 29.776842l0 973.404391 973.954887 0L1001.452752 29.776842 27.497865 29.776842zM957.409203 959.156932 70.55591 959.156932 70.55591 72.819489l886.853293 0L957.409203 959.156932z" p-id="2325" fill="#f9c21f"></path><path d="M165.322105 166.750316l62.714226 0 0 687.947068L165.322105 854.697383 165.322105 166.750316 165.322105 166.750316z" p-id="2326" fill="#f9c21f"></path><path d="M322.105744 166.750316l62.718075 0 0 560.620752L322.105744 727.371068 322.105744 166.750316 322.105744 166.750316z" p-id="2327" fill="#f9c21f"></path><path d="M541.603609 166.750316l62.710376 0 0 560.620752-62.710376 0L541.603609 166.750316 541.603609 166.750316z" p-id="2328" fill="#f9c21f"></path><path d="M795.309233 166.750316l62.714226 0 0 687.947068-62.714226 0L795.309233 166.750316 795.309233 166.750316z" p-id="2329" fill="#f9c21f"></path><path d="M260.819729 166.750316l31.355188 0 0 560.620752-31.355188 0L260.819729 166.750316 260.819729 166.750316z" p-id="2330" fill="#f9c21f"></path><path d="M417.603368 166.750316l31.355188 0 0 560.620752-31.355188 0L417.603368 166.750316z" p-id="2331" fill="#f9c21f"></path><path d="M665.60385 166.750316l31.359038 0 0 560.620752-31.359038 0L665.60385 166.750316z" p-id="2332" fill="#f9c21f"></path><path d="M477.461173 166.750316l31.359038 0 0 688.424421-31.359038 0L477.461173 166.750316z" p-id="2333" fill="#f9c21f"></path><path d="M728.314226 166.750316l31.359038 0 0 560.620752-31.359038 0L728.314226 166.750316z" p-id="2334" fill="#f9c21f"></path><path d="M384.82382 795.074406l31.832541 0 0 30.400481-31.832541 0L384.82382 795.074406z" p-id="2335" fill="#f9c21f"></path><path d="M384.82382 795.074406l31.832541 0 0 30.400481-31.832541 0L384.82382 795.074406z" p-id="2336" fill="#f9c21f"></path><path d="M352.987429 825.478737l31.836391 0 0 30.40818-31.836391 0L352.987429 825.478737z" p-id="2337" fill="#f9c21f"></path><path d="M321.154887 795.074406l31.836391 0 0 30.400481-31.836391 0L321.154887 795.074406z" p-id="2338" fill="#f9c21f"></path><path d="M352.987429 764.666226l31.836391 0 0 30.40818-31.836391 0L352.987429 764.666226z" p-id="2339" fill="#f9c21f"></path><path d="M290.631218 825.478737l31.836391 0 0 30.40818-31.836391 0L290.631218 825.478737z" p-id="2340" fill="#f9c21f"></path><path d="M258.798677 795.074406l31.836391 0 0 30.400481-31.836391 0L258.798677 795.074406z" p-id="2341" fill="#f9c21f"></path><path d="M290.631218 764.666226l31.836391 0 0 30.40818-31.836391 0L290.631218 764.666226z" p-id="2342" fill="#f9c21f"></path><path d="M667.028211 795.074406l31.832541 0 0 30.400481-31.832541 0L667.028211 795.074406z" p-id="2343" fill="#f9c21f"></path><path d="M635.195669 825.478737l31.836391 0 0 30.40818-31.836391 0L635.195669 825.478737z" p-id="2344" fill="#f9c21f"></path><path d="M603.359278 795.074406l31.836391 0 0 30.400481-31.836391 0L603.359278 795.074406z" p-id="2345" fill="#f9c21f"></path><path d="M635.195669 764.666226l31.836391 0 0 30.40818-31.836391 0L635.195669 764.666226z" p-id="2346" fill="#f9c21f"></path><path d="M730.697143 795.074406l31.836391 0 0 30.400481-31.836391 0L730.697143 795.074406z" p-id="2347" fill="#f9c21f"></path><path d="M698.860752 825.478737l31.836391 0 0 30.40818-31.836391 0L698.860752 825.478737z" p-id="2348" fill="#f9c21f"></path><path d="M698.860752 764.666226l31.836391 0 0 30.40818-31.836391 0L698.860752 764.666226z" p-id="2349" fill="#f9c21f"></path><path d="M572.839459 825.478737l31.836391 0 0 30.40818-31.836391 0L572.839459 825.478737 572.839459 825.478737z" p-id="2350" fill="#f9c21f"></path><path d="M541.006917 795.074406l31.832541 0 0 30.400481-31.832541 0L541.006917 795.074406z" p-id="2351" fill="#f9c21f"></path><path d="M572.839459 764.666226l31.836391 0 0 30.40818-31.836391 0L572.839459 764.666226 572.839459 764.666226z" p-id="2352" fill="#f9c21f"></path></svg>