<?xml version="1.0" standalone="no"?><!DOCTYPE svg PUBLIC "-//W3C//DTD SVG 1.1//EN" "http://www.w3.org/Graphics/SVG/1.1/DTD/svg11.dtd"><svg t="1512299127895" class="icon" style="" viewBox="0 0 1024 1024" version="1.1" xmlns="http://www.w3.org/2000/svg" p-id="1001" xmlns:xlink="http://www.w3.org/1999/xlink" width="200" height="200"><defs><style type="text/css"></style></defs><path d="M958.696 465.149c0-4.286-0.26-8.567-0.738-12.563-4.434-37.119-28.008-68.147-60.8-84.704V212.929c0-48.061-38.96-87.022-87.02-87.022H610.159l-36.085-36.085c-33.984-33.984-89.083-33.984-123.067 0l-36.086 36.086H216.653c-48.06 0-87.021 38.96-87.021 87.022V365.72c-35.25 15.944-60.845 48.218-65.355 87.122a96.742 96.742 0 0 0-0.765 12.307l0.034 383.648c0 60.716 52.176 110.143 116.34 110.143h662.465c64.165 0 116.374-49.427 116.374-110.143l-0.029-383.65z m-765.02-205.473c0-38.437 32.44-69.597 72.455-69.597h494.145c40.015 0 72.455 31.16 72.455 69.597v210.005L511.075 660.492 193.677 472.175V259.676z m685.093 589.12c0 16.66-16.371 30.217-36.445 30.217H179.886c-20.082 0-36.415-13.557-36.415-30.216v-313.44L511.04 753.429l367.729-218.107v313.475z" p-id="1002" fill="#fa9bab"></path><path d="M354.8 440.272l89.79 75.223 65.792 68.415 67.873-69.461 96.712-82.486c19.406-19.868 31.35-47.12 31.35-77.115 0-61.073-49.517-110.55-110.588-110.55-34.363 0-65.093 15.652-85.346 40.237-20.255-24.584-50.947-40.237-85.311-40.237-61.072 0-110.588 49.477-110.588 110.55-0.001 34.363 15.693 65.131 40.315 85.424z" p-id="1003" fill="#fa9bab"></path></svg>