<?xml version="1.0" standalone="no"?><!DOCTYPE svg PUBLIC "-//W3C//DTD SVG 1.1//EN" "http://www.w3.org/Graphics/SVG/1.1/DTD/svg11.dtd"><svg t="1483587377791" class="icon" style="" viewBox="0 0 1024 1024" version="1.1" xmlns="http://www.w3.org/2000/svg" p-id="2023" xmlns:xlink="http://www.w3.org/1999/xlink" width="64" height="64"><defs><style type="text/css"></style></defs><path d="M704 384 704 320c0-105.6-86.4-192-192-192S320 214.4 320 320l0 64L192 384l0 435.2c0 42.24 34.56 76.8 76.8 76.8l486.4 0c42.24 0 76.8-34.56 76.8-76.8L832 384 704 384zM384 320c0-70.4 57.6-128 128-128s128 57.6 128 128l0 64L384 384 384 320zM768 819.2c0 7.04-5.76 12.8-12.8 12.8L268.8 832c-7.04 0-12.8-5.76-12.8-12.8L256 448l64 0 0 70.4c0 17.92 14.08 32 32 32s32-14.08 32-32L384 448l256 0 0 70.4c0 17.92 14.08 32 32 32s32-14.08 32-32L704 448l64 0L768 819.2z" p-id="2024" fill="#ffffff"></path></svg>