<?xml version="1.0" standalone="no"?><!DOCTYPE svg PUBLIC "-//W3C//DTD SVG 1.1//EN" "http://www.w3.org/Graphics/SVG/1.1/DTD/svg11.dtd"><svg t="1492595106981" class="icon" style="" viewBox="0 0 1024 1024" version="1.1" xmlns="http://www.w3.org/2000/svg" p-id="11831" xmlns:xlink="http://www.w3.org/1999/xlink" width="32" height="32"><defs><style type="text/css"></style></defs><path d="M686.272 90.112 686.272 90.112c8.256 0 23.488 1.344 33.28 10.496 2.24 2.112 9.024 8.32 9.024 23.872 0 17.408-9.408 44.736-36.032 69.568C660.032 224.192 606.528 247.04 568 247.04c-11.136 0-16.384-1.984-17.344-1.984 0 0 0 0 0 0C543.552 230.528 559.04 167.552 603.968 125.632 627.904 103.424 658.624 90.112 686.272 90.112M686.272 16.32c-44.544 0-93.504 19.008-132.608 55.36-67.072 62.656-106.24 177.984-54.08 226.688 16.832 15.68 41.088 22.464 68.416 22.464 57.664 0 129.28-30.4 174.848-72.832 67.136-62.592 79.232-152.768 27.008-201.408C748.032 26.176 718.336 16.32 686.272 16.32" p-id="11832" fill="#e64c66"></path><path d="M309.312 90.112c27.52 0 58.368 13.312 82.24 35.584 45.248 42.176 60.736 105.792 54.4 118.4-0.064 0-4.864 3.008-18.432 3.008-38.528 0-92.032-22.848-124.544-53.056C276.544 169.216 267.072 141.824 267.072 124.352c0-15.488 6.72-21.76 8.96-23.808C285.76 91.456 301.056 90.112 309.312 90.112M309.312 16.32c-32.128 0-61.76 9.856-83.648 30.208C173.44 95.232 185.6 185.408 252.736 248 298.304 290.432 369.92 320.832 427.584 320.832c27.392 0 51.648-6.784 68.416-22.464C548.16 249.664 509.056 134.272 441.856 71.68 402.816 35.328 353.792 16.32 309.312 16.32" p-id="11833" fill="#e64c66"></path><path d="M931.584 610.048 931.584 356.992c0-39.744-32.512-72.32-72.256-72.32L533.952 284.672l0 325.44L931.584 610.112z" p-id="11834" fill="#e64c66"></path><path d="M533.952 682.304l0 325.376 325.376 0c39.744 0 72.256-32.576 72.256-72.32l0-253.056L533.952 682.304z" p-id="11835" fill="#e64c66"></path><path d="M461.632 610.048 461.632 284.608 136.32 284.608C96.512 284.608 64 317.248 64 356.992l0 253.12L461.632 610.112z" p-id="11836" fill="#e64c66"></path><path d="M64 682.304l0 253.056c0 39.808 32.512 72.32 72.32 72.32l325.312 0 0-325.376L64 682.304z" p-id="11837" fill="#e64c66"></path></svg>