<?xml version="1.0" standalone="no"?><!DOCTYPE svg PUBLIC "-//W3C//DTD SVG 1.1//EN" "http://www.w3.org/Graphics/SVG/1.1/DTD/svg11.dtd"><svg t="1483083715086" class="icon" style="" viewBox="0 0 1024 1024" version="1.1" xmlns="http://www.w3.org/2000/svg" p-id="1984" xmlns:xlink="http://www.w3.org/1999/xlink" width="32" height="32"><defs><style type="text/css"></style></defs><path d="M395.268392 768.714779c-26.193569 0-47.411823 21.219277-47.411823 47.415916 0 26.192545 21.218254 47.410799 47.411823 47.410799 26.195615 0 47.410799-21.218254 47.410799-47.410799C442.679192 789.93508 421.464007 768.714779 395.268392 768.714779L395.268392 768.714779 395.268392 768.714779zM727.153198 768.714779c-26.195615 0-47.414893 21.219277-47.414893 47.415916 0 26.192545 21.218254 47.410799 47.414893 47.410799 26.192545 0 47.410799-21.218254 47.410799-47.410799C774.563998 789.93508 753.34472 768.714779 727.153198 768.714779L727.153198 768.714779 727.153198 768.714779zM774.184351 745.011938 389.129578 745.011938c-34.161031 0-64.196091-27.024493-68.369134-61.519122l-40.205701-283.048541-22.874987-132.278699c-1.422396-11.541871-11.948123-20.979824-22.23542-20.979824l-30.199813 0c-13.087063 0-23.707958-10.620895-23.707958-23.702841 0-13.087063 10.620895-23.707958 23.707958-23.707958l30.199813 0c34.58775 0 64.954361 27.024493 69.15094 61.519122l22.827915 131.779326 40.372499 284.257066c1.327228 11.000542 11.281951 20.271696 21.333888 20.271696l385.05375 0c13.108552 0 23.707958 10.594289 23.707958 23.702841S787.292903 745.011938 774.184351 745.011938L774.184351 745.011938zM418.762479 650.185222c-12.302187 0-22.709211-9.480932-23.613814-21.974477-0.969071-13.06148 8.843412-24.416086 21.880333-25.364691l321.597509-23.706935c11.802814-0.068562 21.76163-9.339716 23.063275-19.887956l37.33635-213.637682c0.948605-7.964392-1.254573-16.689101-6.019087-22.093181-3.060709-3.461845-6.901177-5.215792-11.380188-5.215792L371.184881 318.30451c-13.087063 0-23.707958-10.619872-23.707958-23.707958 0-13.08297 10.620895-23.702841 23.707958-23.702841l410.444023 0c18.111496 0 34.750455 7.513114 46.864354 21.193695 13.847379 15.622816 20.199041 37.644365 17.424858 60.47228l-37.358863 213.663264c-4.028757 33.234939-34.042327 60.259432-68.202335 60.259432l-319.839469 23.63428C419.923932 650.164756 419.330414 650.185222 418.762479 650.185222L418.762479 650.185222zM418.762479 650.185222" p-id="1985" fill="#8a8a8a"></path></svg>