<?xml version="1.0" standalone="no"?><!DOCTYPE svg PUBLIC "-//W3C//DTD SVG 1.1//EN" "http://www.w3.org/Graphics/SVG/1.1/DTD/svg11.dtd"><svg t="1491951298905" class="icon" style="" viewBox="0 0 1024 1024" version="1.1" xmlns="http://www.w3.org/2000/svg" p-id="5967" xmlns:xlink="http://www.w3.org/1999/xlink" width="32" height="32"><defs><style type="text/css"></style></defs><path d="M470.696879 119.361917l15.789235 15.789235-57.208391 57.208391-15.789235-15.789235 57.208391-57.208391Z" p-id="5968" fill="#e16531"></path><path d="M389.501288 287.019293l-16.247261-16.247261 53.775728-53.775728 16.247261 16.247261-53.775728 53.775728Z" p-id="5969" fill="#e16531"></path><path d="M346.438524 243.523976l53.775728-53.775728 15.789235 15.789235-53.775728 53.775728-15.789235-15.789235Z" p-id="5970" fill="#e16531"></path><path d="M440.397467 203.478701l57.208391-57.208391 16.247261 16.247261-57.208391 57.208391-16.247261-16.247261Z" p-id="5971" fill="#e16531"></path><path d="M0.021489 0 0.021489 1023.63775l1023.682775-1023.63775L0.021489 0zM186.618305 304.030411c26.088168-1.373277 40.047088-0.686638 64.990177 3.203972l-2.745531 20.595061c-23.800056-4.577249-40.732703-5.948479-65.905012-4.577249L186.618305 304.030411zM253.439176 642.709971c-7.323802-9.153474-14.417361-17.163915-26.316366-29.062919l-76.43074-76.43074c-9.840112-9.840112-16.705474-17.162892-26.545586-27.91784 6.637164 24.028253 8.925277 36.842093 10.29753 59.72629-1.829671-0.457418-3.432169-1.144056-4.118807-1.373277-7.550976-2.974751-7.550976-2.974751-18.535145-4.805446-1.830695-39.817867-9.153474-71.854515-25.63075-112.1298-7.321756-18.306948-13.729699-30.664394-18.992563-38.21537l21.281699-11.67183c1.373277 4.577249 3.202948 8.696056 7.550976 18.537192 5.034666 11.440563 13.729699 33.867342 20.137643 54.003961l126.08872 126.089743c10.526751 10.525728 19.680225 18.764366 28.375258 26.088168L253.439176 642.709971zM290.738687 604.493577c-9.153474-2.288113-12.81384-2.288113-24.257473-0.916882 4.349051-28.146037 4.118807-44.851511-0.685615-66.591651-8.009418-37.755905-25.629727-68.192102-66.13321-115.561969l-31.80845 31.80845c-9.840112 9.840112-14.874779 15.331173-19.222807 21.51092l-16.018835-16.018835c5.949502-4.118807 11.441587-9.153474 21.74014-19.451004l32.495088-32.496112c-8.466835-9.381671-24.028253-25.857924-32.724309-34.55398-10.29753-10.29753-15.560394-15.103999-22.196535-19.909445l16.705474-16.70445c2.746554 3.203972 14.416338 15.790638 34.784224 37.072337 5.262864 5.263887 5.720282 5.721305 18.077727 19.451004l54.691623-54.691623c10.754948-10.754948 15.789615-16.247033 20.595061-22.884197l16.018835 16.018835c-6.407943 4.577249-12.128225 9.841136-22.653953 20.36584l-55.608505 55.608505c24.943089 29.520337 41.190121 52.17429 52.860928 74.371848C287.534715 518.90834 294.630321 557.12371 290.738687 604.493577zM386.163013 495.795946c-24.943089 24.943089-31.579229 27.004027-45.309952 13.273305l-75.286684-75.286684c-8.009418-8.009418-12.127202-11.67183-20.36584-18.99461l16.247033-16.248056c4.805446 6.637164 9.382695 11.670807 18.536168 20.824281l70.710458 70.711482c5.949502 5.948479 9.610892 4.578272 24.485671-10.296507 14.416338-14.417361 16.476253-18.765389 12.81384-27.003004-3.889587-8.466835-11.899004-18.765389-29.290093-36.156478 7.321756-1.830695 14.187117-4.576225 20.136619-8.237615 18.078751 19.908422 26.545586 32.036647 30.435173 41.875736C414.311097 463.071637 409.504628 472.454332 386.163013 495.795946zM401.49521 361.469612l-18.078751-12.58462c9.381671-8.010441 16.476253-14.646582 28.832675-27.004027 7.094582-7.095605 26.545586-27.461445 58.811454-61.099566l-16.476253-16.476253-42.10598 42.104957c-14.416338 14.416338-19.908422 20.36584-24.943089 27.231201-5.948479-7.322779-9.840112-11.669784-22.654976-24.485671l-20.595061-20.596084c-13.273305-13.273305-17.620309-17.161868-25.172309-23.340591 6.636141-4.348028 13.044084-10.29753 26.774807-24.028253l42.791595-42.791595-13.730723-13.730723-67.734684 67.734684c-9.841136 9.840112-16.476253 17.393135-21.51092 24.257473l-15.560394-15.560394c7.78122-5.493108 14.417361-11.213389 24.486694-21.282722l67.734684-67.734684c-6.637164-6.637164-12.814864-11.900028-19.680225-16.477276l16.476253-16.477276c4.577249 6.865361 9.611915 12.357446 16.477276 19.680225l71.397097-71.397097c10.984169-10.983145 17.161868-18.077727 21.739117-24.943089l15.560394 15.561417c-7.780197 5.949502-14.874779 12.128225-24.713868 21.967314l-71.397097 71.397097 13.730723 13.730723 45.76737-45.76737c14.18814-14.18814 19.451004-19.908422 24.485671-27.231201 6.178723 7.550976 9.611915 11.441587 22.654976 24.485671l21.281699 21.281699c13.272281 13.272281 17.162892 16.70445 24.485671 22.654976-6.636141 4.806469-13.95892 11.670807-26.544563 24.25645l-46.225811 46.225811 16.018835 16.018835c14.874779-15.791661 31.121811-33.410947 48.055482-52.175313-4.347005 0.229221-8.925277 0.686638-19.451004 2.517333l5.492084-16.018835c25.172309-4.576225 42.792619-6.178723 69.107961-6.407943l-1.144056 18.99461c-13.95892-0.686638-17.619286-0.686638-32.265868-0.229221-30.892591 35.927257-64.073294 72.312956-136.158053 149.430334C410.876881 350.257246 406.072459 355.521133 401.49521 361.469612zM544.517601 271.995811l-1.830695 19.221784c-21.74014-1.601474-33.181727-1.144056-56.065923 2.059915l2.288113-17.392112C510.650259 272.910647 522.778484 271.765567 544.517601 271.995811zM444.745247 420.281065c0.458441-25.171286-2.745531-41.190121-13.501502-68.421322l18.764366-5.492084c10.754948 28.604478 14.645558 46.682205 15.332197 71.625294L444.745247 420.281065zM561.680493 324.856739c-25.400506 25.399483-38.21537 36.384675-46.682205 39.816844-5.721305 2.059915-11.44261 0-18.078751-6.636141l-19.222807-19.221784c-7.78122-7.78122-12.585643-12.129248-19.451004-16.705474l16.476253-16.47523c4.577249 6.405897 7.78122 10.06831 15.332197 17.620309l18.078751 18.077727c5.033643 5.034666 9.610892 1.830695 40.275285-28.833699 20.366863-20.366863 28.832675-30.664394 29.976732-36.842093 1.373277-5.494131-1.601474-10.756995-13.501502-24.028253 7.093559-1.601474 13.044084-3.89061 20.137643-8.695033C608.821139 274.512121 607.447862 279.088346 561.680493 324.856739zM564.427046 229.202169l4.348028-18.077727c28.605501-0.229221 48.742121 1.600451 75.058486 7.321756l-3.203972 20.137643C611.567693 231.948723 590.743412 229.432413 564.427046 229.202169z" p-id="5972" fill="#e16531"></path></svg>