<?xml version="1.0" standalone="no"?><!DOCTYPE svg PUBLIC "-//W3C//DTD SVG 1.1//EN" "http://www.w3.org/Graphics/SVG/1.1/DTD/svg11.dtd"><svg t="1491781784668" class="icon" style="" viewBox="0 0 1024 1024" version="1.1" xmlns="http://www.w3.org/2000/svg" p-id="2528" xmlns:xlink="http://www.w3.org/1999/xlink" width="32" height="32"><defs><style type="text/css"></style></defs><path d="M813.678342 888.881626c-2.234901 0-4.476965-0.532119-6.531763-1.612731L549.53129 751.830227l-257.617335 135.438669c-4.730745 2.488681-10.461259 2.073218-14.784728-1.067308s-6.487761-8.463766-5.585205-13.730723l49.201585-286.860357L112.33088 382.454552c-3.826142-3.730974-5.203512-9.309016-3.552919-14.390755 1.651616-5.081739 6.04467-8.786107 11.333116-9.55461l288.022833-41.8522L536.941554 55.664787c2.365884-4.792143 7.245008-7.825222 12.589736-7.825222 5.343705 0 10.223852 3.03308 12.589736 7.825222l128.807644 260.993223 288.022833 41.851177c5.288446 0.768503 9.6815 4.472871 11.333116 9.55461 1.650593 5.082762 0.274246 10.660804-3.553942 14.390755L778.31595 585.610508l49.201585 286.860357c0.903579 5.265934-1.26276 10.590196-5.585205 13.730723C819.486628 887.977024 816.588625 888.881626 813.678342 888.881626zM549.53129 721.931267c2.24411 0 4.488221 0.537236 6.532787 1.612731l238.971673 125.636419L749.394247 583.082942c-0.781806-4.553713 0.729617-9.200546 4.037966-12.426007l193.331193-188.453093-267.177062-38.822191c-4.572132-0.664126-8.525164-3.536546-10.56973-7.679913L549.53129 93.598748 430.044942 335.700715c-2.045589 4.143367-5.997598 7.015787-10.570753 7.679913l-267.177062 38.823214 193.332217 188.453093c3.308349 3.224438 4.817726 7.871271 4.036943 12.426007l-45.64048 266.097474 238.971673-125.636419C545.043069 722.468502 547.286156 721.931267 549.53129 721.931267z" p-id="2529" fill="#cdcdcd"></path></svg>