<?xml version="1.0" standalone="no"?><!DOCTYPE svg PUBLIC "-//W3C//DTD SVG 1.1//EN" "http://www.w3.org/Graphics/SVG/1.1/DTD/svg11.dtd"><svg t="1486719413931" class="icon" style="" viewBox="0 0 1024 1024" version="1.1" xmlns="http://www.w3.org/2000/svg" p-id="2020" xmlns:xlink="http://www.w3.org/1999/xlink" width="32" height="32"><defs><style type="text/css"></style></defs><path d="M510.294149 60.551074c-247.538793 0-448.208115 177.76466-448.208115 394.522402 0 139.115408 82.667791 261.312494 207.323882 331.013973l0 172.483376 170.948417-113.798812c22.63144 2.538823 45.000913 2.778276 69.935816 2.778276 247.538793 0 449.231421-175.718047 449.231421-392.475789S757.831918 60.551074 510.294149 60.551074zM511.155772 829.337485c-27.2926 0-51.939953-0.191358-77.81425-4.463662l-0.578168 0.441045-2.115174-0.260943-140.77828 96.612385-0.13303-124.854613c0.046049 0.022513 0.091074 0.046049 0.137123 0.069585l0-21.372773c-124.249839-65.717747-207.322859-185.103812-207.322859-321.481875 0-207.277834 191.892425-375.309828 428.604638-375.309828s428.604638 168.031994 428.604638 375.309828S747.867986 829.337485 511.155772 829.337485z" p-id="2021" fill="#f53c42"></path><path d="M529.307178 653.010571l0 0.101307c-181.739181-6.448876-194.409758-131.468241-194.409758-131.468241l-32.232099 0c33.767058 176.511109 227.16272 164.232458 227.16272 164.232458l0-0.093121c10.987239 0.540306 193.890942 6.934946 226.641857-164.260088l-32.232099 0C724.236775 521.521864 711.546755 646.783753 529.307178 653.010571z" p-id="2022" fill="#f53c42"></path></svg>