<?xml version="1.0" standalone="no"?><!DOCTYPE svg PUBLIC "-//W3C//DTD SVG 1.1//EN" "http://www.w3.org/Graphics/SVG/1.1/DTD/svg11.dtd"><svg t="1492595773828" class="icon" style="" viewBox="0 0 1037 1024" version="1.1" xmlns="http://www.w3.org/2000/svg" p-id="22280" xmlns:xlink="http://www.w3.org/1999/xlink" width="32.40625" height="32"><defs><style type="text/css"></style></defs><path d="M1021.461177 431.948803c0 70.733994-57.164954 128.084167-127.683031 128.084167-70.51603 0-127.679961-57.350173-127.679961-128.084167l0 0 0 0 0 0c0 70.733994-57.169047 128.084167-127.683031 128.084167-70.520123 0-127.685078-57.350173-127.685078-128.084167l0 0 0 0 0 0 0 0c0 70.733994-57.164954 128.084167-127.683031 128.084167-70.51603 0-127.683031-57.350173-127.683031-128.084167l0 0 0 0 0 0 0 0c0 70.733994-57.161884 128.084167-127.677914 128.084167-70.52217 0-127.687124-57.350173-127.687124-128.084167l0 0 0 0 0 0 89.779769-240.159732 841.904709 0L1021.461177 431.948803 1021.461177 431.948803 1021.461177 431.948803zM861.860203 143.759171l-702.254112 0c-26.446325 0-47.880497-21.50171-47.880497-48.031946 0-26.52819 21.434172-48.0299 47.880497-48.0299l702.254112 0c26.442232 0 47.876404 21.50171 47.876404 48.0299C909.736607 122.257461 888.301412 143.759171 861.860203 143.759171zM143.644561 607.282087l0-0.029676c4.582365-0.417509 9.083889-1.109264 13.55983-1.873674 0.966001-0.169869 1.959631-0.245593 2.915399-0.422625 2.068102-0.38988 4.058432-0.970094 6.098905-1.434675 8.668427-1.985214 17.160845-4.450359 25.306362-7.65433l0 0.027629 0 0 0 236.308007 638.411061 0L829.936119 595.894735l0 0 0-0.027629c8.134261 3.196809 16.617469 5.661953 25.27464 7.645121 2.049682 0.466628 4.053316 1.054005 6.128581 1.443885 0.956791 0.176009 1.947352 0.252757 2.911306 0.420579 4.475941 0.766456 8.979512 1.458211 13.564947 1.87572l0 0.029676c5.260817 0.494257 10.576893 0.782829 15.962553 0.782829 10.920724 0 21.556968-1.139963 31.921014-3.050476l0 323.255265c0 26.524097-21.434172 48.03297-47.883567 48.03297L143.644561 976.302675c-26.444279 0-47.87845-21.508873-47.87845-48.03297L95.766111 605.01444c10.363022 1.910513 21.00029 3.050476 31.921014 3.050476C133.068691 608.064916 138.384767 607.776344 143.644561 607.282087z" p-id="22281" fill="#18aff1"></path></svg>