<?xml version="1.0" standalone="no"?><!DOCTYPE svg PUBLIC "-//W3C//DTD SVG 1.1//EN" "http://www.w3.org/Graphics/SVG/1.1/DTD/svg11.dtd"><svg t="1491950880137" class="icon" style="" viewBox="0 0 1024 1024" version="1.1" xmlns="http://www.w3.org/2000/svg" p-id="4013" xmlns:xlink="http://www.w3.org/1999/xlink" width="32" height="32"><defs><style type="text/css"></style></defs><path d="M512 1024C229.213091 1024 0 794.763636 0 512 0 229.213091 229.213091-0.023273 512-0.023273 794.740364-0.023273 1023.976727 229.213091 1023.976727 512 1023.976727 794.763636 794.740364 1024 512 1024ZM512 64C264.564364 64 64 264.564364 64 512 64 759.389091 264.564364 959.976727 512 959.976727 759.412364 959.976727 960 759.389091 960 512 960 264.564364 759.412364 64 512 64ZM716.544 333.893818C725.410909 318.580364 720.151273 298.984727 704.837818 290.164364 689.547636 281.344 669.975273 286.580364 661.131636 301.893818L456.471273 656.337455 341.969455 550.725818C329.890909 537.856 309.643636 537.181091 296.750545 549.282909 283.857455 561.361455 283.205818 581.608727 295.284364 594.501818L441.576727 729.437091C453.678545 742.330182 473.925818 742.981818 486.818909 730.903273 490.705455 727.249455 716.544 333.893818 716.544 333.893818Z" p-id="4014" fill="#87a7d6"></path></svg>