<?xml version="1.0" standalone="no"?><!DOCTYPE svg PUBLIC "-//W3C//DTD SVG 1.1//EN" "http://www.w3.org/Graphics/SVG/1.1/DTD/svg11.dtd"><svg t="1482152925160" class="icon" style="" viewBox="0 0 1246 1024" version="1.1" xmlns="http://www.w3.org/2000/svg" p-id="2394" xmlns:xlink="http://www.w3.org/1999/xlink" width="155.75" height="128"><defs><style type="text/css"></style></defs><path d="M429.992737 258.003478H289.170477c-23.997217 0-59.748174 15.270957-76.26574 32.589913L89.045259 419.973565c-16.65113 17.363478-31.699478 54.717217-31.699478 78.714435v160.634435l-28.672-28.672h163.483826a28.672 28.672 0 0 1 0 57.299478H28.673781A28.672 28.672 0 0 1 0.001781 659.366957V498.643478c0-38.822957 20.791652-90.37913 47.638261-118.383304L171.410477 250.924522c27.38087-28.582957 78.046609-50.265043 117.715478-50.265044h140.822261v-85.481739A115.044174 115.044174 0 0 1 544.947868 0h572.638609a115.177739 115.177739 0 0 1 114.999652 115.133217v457.683479a115.044174 115.044174 0 0 1-114.999652 115.133217H544.947868a115.177739 115.177739 0 0 1-114.999652-115.133217V258.003478z m71.68-133.298087v438.539131c0 30.586435 24.798609 55.474087 55.206957 55.474087h548.819478c30.541913 0 55.251478-24.798609 55.251478-55.429566V124.66087c0-30.541913-24.798609-55.429565-55.251478-55.429566H556.924216c-30.541913 0-55.296 24.754087-55.296 55.429566zM315.260216 1003.297391a143.36 143.36 0 1 0 0-286.675478 143.36 143.36 0 0 0 0 286.675478z m0-57.344a86.016 86.016 0 1 1 0-171.987478 86.016 86.016 0 0 1 0 171.987478z m630.650434 57.344a143.36 143.36 0 1 0 0-286.675478 143.36 143.36 0 0 0 0 286.675478z m0-57.344a86.016 86.016 0 1 1 0-171.987478 86.016 86.016 0 0 1 0 171.987478zM200.661259 487.334957h114.643478a28.672 28.672 0 0 0 28.672-28.672V343.974957a28.672 28.672 0 1 0-57.299478 0v114.688l28.627478-28.672H200.661259a28.672 28.672 0 1 0 0 57.344z" fill="#dbdbdb" p-id="2395"></path></svg>