<?xml version="1.0" standalone="no"?><!DOCTYPE svg PUBLIC "-//W3C//DTD SVG 1.1//EN" "http://www.w3.org/Graphics/SVG/1.1/DTD/svg11.dtd"><svg t="1483588179086" class="icon" style="" viewBox="0 0 1024 1024" version="1.1" xmlns="http://www.w3.org/2000/svg" p-id="8460" xmlns:xlink="http://www.w3.org/1999/xlink" width="64" height="64"><defs><style type="text/css"></style></defs><path d="M511.996 869.321c-198.074 0-358.661-70.241-359.225-156.793-18.681-4.981-36.862-10.338-54.173-15.94-0.748 5.107-1.057 10.21-1.057 15.443 0 118.434 185.554 214.448 414.452 214.448 228.896 0 414.451-96.014 414.451-214.448 0-6.662-0.561-13.328-1.744-19.803-17.125 5.853-35.057 11.458-53.613 16.626l0.126 3.175c0.002 86.864-160.834 157.291-359.219 157.291v0zM511.996 669.191c-198.074 0-358.661-70.115-359.225-156.793-18.681-4.981-36.862-10.21-54.173-15.939-0.748 5.105-1.057 10.337-1.057 15.565 0 118.309 185.554 214.326 414.452 214.326 228.896 0 414.451-96.018 414.451-214.326 0-6.723-0.561-13.323-1.744-19.925-17.125 5.917-35.057 11.458-53.613 16.688l0.126 3.237c0.002 86.803-160.834 157.167-359.219 157.167v0zM152.771 311.9c0-86.803 160.838-157.165 359.225-157.165 198.385 0 359.221 70.361 359.221 157.165 0 86.799-160.836 157.163-359.221 157.163-198.386 0-359.225-70.363-359.225-157.163v0zM97.543 311.9c0 118.431 185.554 214.325 414.452 214.325 228.896 0 414.451-95.895 414.451-214.325 0-118.433-185.555-214.326-414.451-214.326-228.898-0.001-414.452 95.894-414.452 214.326v0z" p-id="8461" fill="#ffffff"></path></svg>