<?xml version="1.0" standalone="no"?><!DOCTYPE svg PUBLIC "-//W3C//DTD SVG 1.1//EN" "http://www.w3.org/Graphics/SVG/1.1/DTD/svg11.dtd"><svg t="1492595465887" class="icon" style="" viewBox="0 0 1304 1024" version="1.1" xmlns="http://www.w3.org/2000/svg" p-id="16084" xmlns:xlink="http://www.w3.org/1999/xlink" width="40.75" height="32"><defs><style type="text/css"></style></defs><path d="M1292.685426 797.333627 1292.685426 939.667838C1292.685426 978.934298 1260.860867 1010.758858 1221.517426 1010.758858L509.846377 1010.758858 509.846377 726.095809 438.642574 726.095809 438.642574 1010.758858 82.874182 1010.758858C43.537902 1010.758858 11.636364 978.934298 11.636364 939.667838L11.636364 797.333627C129.607608 797.333627 225.174378 701.766858 225.174378 583.759809 225.174378 465.885235 129.607608 370.221794 11.636364 370.221794L11.636364 85.549795C11.636364 46.353151 43.537902 14.451613 82.874182 14.451613L438.642574 14.451613 438.642574 299.123612 509.846377 299.123612 509.846377 14.451613 1221.517426 14.451613C1260.853706 14.451613 1292.685426 46.353151 1292.685426 85.549795L1292.685426 370.221794C1174.678377 370.221794 1079.181426 465.885235 1079.181426 583.759809 1079.188587 701.766858 1174.678377 797.333627 1292.685426 797.333627L1292.685426 797.333627ZM438.642574 654.997627 509.846377 654.997627 509.846377 370.221794 438.642574 370.221794 438.642574 654.997627Z" p-id="16085" fill="#e37242"></path></svg>