<?xml version="1.0" standalone="no"?><!DOCTYPE svg PUBLIC "-//W3C//DTD SVG 1.1//EN" "http://www.w3.org/Graphics/SVG/1.1/DTD/svg11.dtd"><svg t="1483588106570" class="icon" style="" viewBox="0 0 1024 1024" version="1.1" xmlns="http://www.w3.org/2000/svg" p-id="7731" xmlns:xlink="http://www.w3.org/1999/xlink" width="64" height="64"><defs><style type="text/css"></style></defs><path d="M313.977 693.635c-38.569 0-75.955-8.933-111.125-26.551-33.73-16.897-63.97-41.024-89.879-71.71-52.782-62.514-81.852-145.45-81.852-233.526 0-88.079 29.069-171.013 81.852-233.529 25.908-30.686 56.148-54.813 89.879-71.711 35.169-17.618 72.557-26.551 111.125-26.551s75.955 8.933 111.124 26.551c33.73 16.897 63.97 41.024 89.878 71.711 52.783 62.515 81.852 145.451 81.852 233.529 0 88.078-29.069 171.012-81.852 233.526-25.908 30.686-56.148 54.813-89.878 71.71-35.169 17.619-72.556 26.551-111.124 26.551zM313.977 64.985c-136.707 0-247.926 133.171-247.926 296.863 0 163.689 111.22 296.861 247.926 296.861s247.926-133.17 247.926-296.861c0-163.691-111.219-296.863-247.926-296.863z" p-id="7732" fill="#ffffff"></path><path d="M751.574 700.64c-50.053 0-97.541-16.662-137.452-48.249-39.502-31.267-69.527-75.511-86.828-127.952-3.023-9.161 1.954-19.035 11.114-22.057 9.162-3.024 19.034 1.954 22.057 11.114 30.557 92.625 105.482 152.213 191.158 152.214 0.511 0 1.020-0.002 1.53-0.006 113.942-0.944 205.732-112.449 204.618-248.561-0.080-9.645 7.675-17.527 17.321-17.606 0.048 0 0.098 0 0.146 0 9.579 0 17.382 7.725 17.46 17.322 0.613 74.732-23.593 145.323-68.156 198.768-45.259 54.279-106.023 84.469-171.098 85.007-0.622 0.003-1.248 0.006-1.869 0.006z" p-id="7733" fill="#ffffff"></path><path d="M975.231 434.464c-9.579 0-17.382-7.725-17.46-17.322-0.545-66.468-22.895-128.651-62.932-175.093-39.33-45.62-91.142-70.506-145.724-70.043-65.909 0.546-132.007 38.899-164.478 95.437-4.803 8.365-15.476 11.251-23.843 6.447-8.364-4.804-11.25-15.477-6.447-23.842 38.436-66.925 116.589-112.323 194.477-112.969 65.104-0.538 126.326 28.641 172.47 82.162 45.434 52.701 70.793 122.882 71.404 197.614 0.080 9.645-7.676 17.527-17.321 17.606-0.048 0.001-0.098 0.001-0.146 0.001z" p-id="7734" fill="#ffffff"></path><path d="M308.662 994.351c-1.421 0-2.864-0.309-4.231-0.964-4.895-2.341-6.964-8.207-4.624-13.101 35.115-73.423 24.937-121.109 15.958-163.182-6.597-30.913-12.829-60.111-1.504-94.393 1.701-5.152 7.258-7.948 12.41-6.246 5.152 1.702 7.949 7.258 6.246 12.41-9.654 29.223-4.224 54.667 2.063 84.127 9.634 45.14 20.554 96.304-17.449 175.76-1.687 3.53-5.205 5.589-8.869 5.589z" p-id="7735" fill="#ffffff"></path><path d="M743.375 931.91c-0.795 0-1.602-0.125-2.397-0.387-4.007-1.323-6.182-5.645-4.859-9.651 15.185-45.984 10.070-75.378 5.122-103.805-4.138-23.781-8.417-48.371-0.137-80.594 1.050-4.086 5.212-6.55 9.301-5.498 4.086 1.050 6.549 5.214 5.498 9.301-7.461 29.039-3.647 50.961 0.391 74.171 5.024 28.87 10.718 61.595-5.668 111.218-1.059 3.213-4.045 5.247-7.253 5.247z" p-id="7736" fill="#ffffff"></path><path d="M131.654 300.077c-0.014 0-0.029 0-0.043 0-4.822-0.022-8.714-3.951-8.691-8.773 0.135-28.225 12.767-62.454 33.789-91.565 23.796-32.951 55.711-56.057 89.862-65.061 4.663-1.23 9.44 1.554 10.67 6.218 1.229 4.663-1.554 9.441-6.218 10.67-68.221 17.987-110.419 93.561-110.639 139.822-0.022 4.81-3.929 8.691-8.731 8.691z" p-id="7737" fill="#ffffff"></path><path d="M801.216 624.389c39.629-10.991 72.47-38.951 87.123-77.902z" p-id="7738" fill="#ffffff"></path><path d="M287.109 730.16c-3.828 0-7.312-2.224-8.918-5.708-1.625-3.518-1.028-7.663 1.521-10.58l37.255-42.643c1.838-2.105 4.485-3.327 7.279-3.36 0.039-0.001 0.080-0.001 0.119-0.001 2.751 0 5.378 1.154 7.239 3.183l38.272 41.727c2.619 2.854 3.315 6.982 1.777 10.539s-5.023 5.876-8.897 5.923l-75.527 0.919c-0.042 0-0.081 0-0.122 0zM324.544 692.419l-15.574 17.827 31.572-0.385-15.999-17.441z" p-id="7739" fill="#ffffff"></path><path d="M772.076 737.374c-0.019 0-0.039 0-0.059 0l-47.141-0.365c-3.037-0.022-5.772-1.842-6.966-4.636-1.196-2.793-0.622-6.027 1.458-8.239l23.763-25.274c1.457-1.55 3.472-2.462 5.625-2.406 2.128 0.017 4.154 0.921 5.587 2.492l23.376 25.638c2.046 2.244 2.57 5.486 1.331 8.259-1.227 2.756-3.963 4.529-6.976 4.529zM742.48 721.863l12.166 0.094-6.033-6.617-6.133 6.523z" p-id="7740" fill="#ffffff"></path></svg>