<?xml version="1.0" standalone="no"?><!DOCTYPE svg PUBLIC "-//W3C//DTD SVG 1.1//EN" "http://www.w3.org/Graphics/SVG/1.1/DTD/svg11.dtd"><svg t="1483587781134" class="icon" style="" viewBox="0 0 1024 1024" version="1.1" xmlns="http://www.w3.org/2000/svg" p-id="5325" xmlns:xlink="http://www.w3.org/1999/xlink" width="64" height="64"><defs><style type="text/css"></style></defs><path d="M826.348919 932.553265 203.956693 932.553265c-37.054941 0-67.201541-30.146601-67.201541-67.201541L136.755152 674.133657c0-14.274098 11.571546-25.846668 25.846668-25.846668s25.846668 11.57257 25.846668 25.846668L188.448488 865.351724c0 8.550747 6.956436 15.507182 15.508205 15.507182l622.393249 0c8.550747 0 15.508205-6.956436 15.508205-15.507182L841.858148 674.133657c0-14.274098 11.571546-25.846668 25.846668-25.846668s25.846668 11.57257 25.846668 25.846668L893.551484 865.351724C893.550461 902.406664 863.40386 932.553265 826.348919 932.553265zM778.790764 388.734582 251.514849 388.734582c-14.275121 0-25.846668-11.57257-25.846668-25.846668s11.571546-25.846668 25.846668-25.846668L778.790764 337.041246c14.274098 0 25.846668 11.57257 25.846668 25.846668S793.064862 388.734582 778.790764 388.734582zM524.515546 591.573313c-53.518914 0-103.59645-29.948079-147.45126-61.367673-52.668547 36.133965-102.010325 54.428633-146.884348 54.428633-39.127136 0-74.060763-13.489222-103.830787-40.092114-25.048489-22.382776-40.529065-48.968272-49.105395-67.329455-9.41237-20.148899-12.231579-55.663764-6.4192-80.850399 1.314948-5.696746 10.255575-35.221176 19.306718-57.669444 17.043165-42.267663 57.733912-123.43324 87.402629-180.095751 23.893176-45.63434 53.18941-55.213509 73.558319-55.213509l531.412119 0c20.244067 0 48.981574 9.741875 70.925353 56.153928 8.303106 17.561981 20.828374 43.005466 34.089399 69.942979 25.102724 50.993394 53.55473 108.790752 66.983577 140.578736 6.965645 16.48444 7.505951 34.202986 7.765871 42.716894 0.027629 0.924045 0.045025 1.693572 0.081864 2.272763 0.295735 4.77577 1.202385 29.742395-10.075473 52.157917-19.971867 39.695071-41.850154 68.493977-66.88841 88.044242-24.805966 19.371186-52.609195 29.191856-82.629929 29.191856-0.007163 0-0.011256 0-0.01842 0-43.075051-0.005117-89.37454-19.191084-148.029428-61.737086-17.588587 20.379143-35.961026 36.317137-54.816466 47.529503C576.081992 584.393797 550.722418 591.573313 524.515546 591.573313zM377.224945 472.478891c5.408173 0 10.8143 1.692548 15.385409 5.077645 40.707121 30.15274 87.827301 62.323441 131.906216 62.323441 36.647665 0 70.946842-22.333658 104.85614-68.276013 4.13825-5.606695 10.364045-9.3039 17.267269-10.254551 6.89913-0.954745 13.896498 0.923022 19.396769 5.201465 58.063417 45.160549 101.503788 66.196655 136.708592 66.201771 0.002047 0 0.008186 0 0.010233 0 39.485293 0 73.285097-29.037337 103.3396-88.775906 4.057409-8.06263 5.010107-20.059871 4.660136-25.726941-0.062422-0.992607-0.107447-2.309602-0.156566-3.892657-0.164752-5.383614-0.506537-16.584724-3.714602-24.178679-12.847609-30.413684-40.950667-87.49882-65.74333-137.864928-13.353123-27.125801-25.965371-52.747341-34.443463-70.677713-4.689812-9.917884-14.06739-26.555819-24.191982-26.555819L251.092223 155.080008c-11.627828 0-22.384823 17.22736-27.761274 27.497261-29.120224 55.615669-68.919672 134.936225-85.255733 175.448918-7.968485 19.763113-15.882736 45.919842-16.902972 50.061163-3.605108 15.624862-0.727571 39.463804 2.90926 47.25014 10.899234 23.333428 43.054585 77.603449 106.099457 77.603449 37.919634 0 82.204234-18.625196 131.624806-55.358819C366.381993 474.179626 371.803469 472.478891 377.224945 472.478891z" p-id="5326" fill="#ffffff"></path></svg>