<?xml version="1.0" standalone="no"?><!DOCTYPE svg PUBLIC "-//W3C//DTD SVG 1.1//EN" "http://www.w3.org/Graphics/SVG/1.1/DTD/svg11.dtd"><svg t="1489044278214" class="icon" style="" viewBox="0 0 1024 1024" version="1.1" xmlns="http://www.w3.org/2000/svg" p-id="1487" xmlns:xlink="http://www.w3.org/1999/xlink" width="48" height="48"><defs><style type="text/css"></style></defs><path d="M847.657955 541.581591 541.482727 541.581591l0 307.008182c0 15.95-12.931818 28.885227-28.886364 28.885227-15.957955 0-28.889773-12.935227-28.889773-28.885227L483.706591 541.581591 175.865455 541.581591c-15.953409 0-28.885227-12.934091-28.885227-28.892045 0-15.954545 12.931818-28.888636 28.885227-28.888636l307.841364 0L483.706818 176.795c0-15.957955 12.931818-28.890909 28.889773-28.890909 15.954545 0 28.886364 12.935227 28.886364 28.890909l0 307.006136 306.175455 0c15.953409 0 28.889773 12.936364 28.889773 28.888636C876.547727 528.6475 863.611364 541.581591 847.657955 541.581591z" p-id="1488" fill="#8a8a8a"></path></svg>