<?xml version="1.0" standalone="no"?><!DOCTYPE svg PUBLIC "-//W3C//DTD SVG 1.1//EN" "http://www.w3.org/Graphics/SVG/1.1/DTD/svg11.dtd"><svg t="1483770729990" class="icon" style="" viewBox="0 0 1633 1024" version="1.1" xmlns="http://www.w3.org/2000/svg" p-id="4961" xmlns:xlink="http://www.w3.org/1999/xlink" width="102.0625" height="64"><defs><style type="text/css"></style></defs><path d="M1299.104478 767.975027c0 34.762657-28.669203 63.43186-63.431861 63.43186h-200.484635c0 4.0956 1.997854 10.189055 1.997854 14.284655 0 24.573603-14.284655 47.049459-36.860404 55.24066h126.86372c34.762657 0 63.43186 28.669203 63.431861 63.43186s-28.669203 59.33626-63.431861 59.33626h-771.171593c-34.762657 0-63.43186-28.669203-63.43186-63.43186s28.669203-63.43186 63.43186-63.431861H427.540728c-20.478002-10.189055-36.860404-30.667057-36.860404-55.240659s14.284655-47.049459 36.860404-55.24066H300.677007c-42.953858 0-77.716515-34.762657-77.716515-75.718661 0-12.286801 1.997854-22.475856 10.189054-34.762657h-75.718661c-36.860404-1.997854-63.43186-30.667057-63.431861-65.429715 0-24.573603 14.284655-47.049459 36.860404-55.240659h-59.33626c-34.762657 0-63.43186-28.669203-63.43186-63.43186s28.669203-61.334114 63.43186-61.334114h294.583553c14.284655 0 22.475856-12.286801 22.475856-22.475856 0-14.284655-12.286801-22.475856-22.475856-22.475856H257.723149c-20.478002-10.189055-36.860404-30.667057-36.860404-55.24066 0-34.762657 28.669203-63.43186 63.43186-63.43186h304.872501c10.189055 0 16.382402-6.093454 16.382401-16.382402 0-10.189055-6.093454-16.382402-16.382401-16.382401h-49.147206c-12.286801-6.093454-20.478002-20.478002-20.478002-34.762658V178.807921c0-22.475856 18.380256-38.858258 38.858258-38.858258h607.647254c22.475856 0 38.858258 18.380256 38.858258 38.858258v20.478002c0 14.284655-10.189055 28.669203-20.478002 34.762658h-112.479173c-10.189055 0-16.382402 6.093454-16.382402 16.382401 0 10.189055 6.093454 16.382402 16.382402 16.382402h218.864891c34.762657 0 63.43186 28.669203 63.43186 63.43186 0 24.573603-14.284655 47.049459-36.860403 55.24066h251.629694c34.762657 0 63.43186 28.669203 63.43186 63.43186s-28.669203 63.43186-63.43186 63.43186h-278.201151c12.286801 6.093454 20.478002 20.478002 20.478002 34.762658s-6.093454 28.669203-20.478002 34.762657h137.052775c22.475856 0 38.858258 18.380256 38.858258 38.858258 0 22.475856-18.380256 38.858258-38.858258 38.858257h-204.580236c-14.284655 0-22.475856 12.286801-22.475856 22.475857 0 14.284655 12.286801 22.475856 22.475856 22.475856h26.571457c28.769096 6.193347 49.247098 32.764803 49.247098 63.43186z m59.336259 71.623061c0-22.475856 18.380256-38.858258 38.858258-38.858258h38.858258c22.475856 0 38.858258 18.380256 38.858258 38.858258 0 22.475856-18.380256 38.858258-38.858258 38.858258h-38.858258c-20.478002 4.0956-38.858258-14.284655-38.858258-38.858258z m49.047313-523.737391c0-22.475856 18.380256-38.858258 38.858258-38.858258h38.858257c22.475856 0 38.858258 18.380256 38.858258 38.858258 0 22.475856-18.380256 38.858258-38.858258 38.858257H1448.444054c-22.475856 0-40.956004-14.284655-40.956004-38.858257zM0 311.765096c0-22.475856 18.380256-38.858258 38.858258-38.858258h38.858257c22.475856 0 38.858258 18.380256 38.858258 38.858258 0 22.475856-18.380256 38.858258-38.858258 38.858258h-38.858257c-20.478002 0-38.858258-18.380256-38.858258-38.858258z" fill="#EFEEEE" p-id="4962"></path><path d="M268.111989 218.964784L247.633987 255.825188l-20.478002-36.860404-36.860404-22.475856 36.860404-20.478002 20.478002-38.858258 20.478002 38.858258 40.956004 20.478002-40.956004 22.475856z m1161.95181-44.951712L1409.685689 212.87133l-20.478002-38.858258-40.956004-20.478002 40.956004-20.478002 20.478002-38.858258 20.478002 38.858258 38.858258 20.478002-38.95815 20.478002z m-85.907717 742.602283l-20.478002 38.858257-20.478002-38.858257-40.956004-20.478003 40.956004-22.475856 20.478002-38.858257 20.478002 38.858257 40.956005 22.475856-40.956005 20.478003z m239.342894-349.824213l-14.284655 26.571457-14.284656-26.571457-28.669203-14.284655 28.669203-16.382402 14.284656-28.669203 14.284655 28.669203 26.571456 16.382402-26.571456 14.284655zM552.406594 57.338406L538.121939 86.007609l-16.382401-28.669203-28.669203-12.286801 28.669203-16.382402 16.382401-28.669203 14.284655 28.669203 26.571457 16.382402-26.571457 12.286801zM96.196664 877.757097L81.912009 904.328553l-16.382402-26.571456-26.571457-14.284655 26.571457-16.382402 16.382402-28.669203 14.284655 28.669203 28.669203 16.382402-28.669203 14.284655z" fill="#F9D98C" p-id="4963"></path><path d="M493.769583 605.549507c0 105.187006 56.73905 202.48249 148.940006 255.125939 92.200956 52.643449 205.679056 52.643449 297.880012 0 92.200956-52.643449 148.940006-149.83904 148.940006-255.125939 0-162.625305-133.356746-294.583553-297.880012-294.583552s-297.880012 131.958248-297.880012 294.583552z" fill="#FDFCE2" p-id="4964"></path><path d="M550.908204 977.250219c-18.280363 9.989269-39.957077 0-51.54463-19.978538-11.687445-19.978539-4.994635-44.951712 11.687445-53.242806 18.280363-9.989269 39.957077 0 51.54463 19.978539 11.587552 19.978539 4.994635 43.253536-11.687445 53.242805zM129.860501 617.636523c-0.299678 5.693884 2.097747 11.088089 6.393133 14.184763 4.195493 3.096673 9.589699 3.396352 14.184762 0.699249 4.495171-2.59721 7.491952-7.691737 7.79163-13.385621 0.299678-5.693884-2.097747-11.088089-6.393132-14.184763-4.195493-3.096673-9.589699-3.396352-14.184763-0.699249-4.495171 2.59721-7.491952 7.691737-7.79163 13.385621zM419.948883 372.699639c-13.285728-3.296459-21.676714-19.978539-16.68208-36.560726s19.978539-24.973173 33.264267-21.676714c13.285728 3.296459 21.676714 19.978539 16.68208 36.560726-4.994635 15.083797-19.978539 25.073066-33.264267 21.676714zM909.02351 209.275193c-3.296459-9.989269 4.994635-21.676714 16.68208-23.274998 11.687445-3.296459 24.973173 1.698176 26.671349 11.687445s-4.994635 21.676714-16.68208 23.274998c-11.687445 4.894742-24.973173-1.798068-26.671349-11.687445z m224.358989 716.430397c-11.687445 4.994635-24.973173-1.698176-31.665984-16.68208-6.69281-14.983904 0-28.269632 11.687446-33.264267 11.687445-4.994635 24.973173 1.698176 31.665983 16.68208 6.592918 14.983904-0.099893 28.269632-11.687445 33.264267z m262.917569-456.010146c-3.296459 11.687445-16.68208 19.978539-31.665984 16.68208-14.983904-3.296459-23.274998-16.68208-21.676714-28.269632 3.296459-11.687445 16.68208-19.978539 31.665984-16.68208 14.983904 3.296459 23.37489 14.884011 21.676714 28.269632z" fill="#F9D98C" p-id="4965"></path><path d="M501.860892 676.673105c16.68208 64.930251 54.940981 121.469515 106.485611 159.728417-8.291094-26.671349-14.983904-53.242806 9.989269-71.523169 28.269632-23.274998 14.983904-41.55536 23.274998-69.924885 9.989269-39.957077 44.951712-29.967808 44.951712-79.914155s24.973173-44.951712 34.962442-79.914154c9.989269-33.264267-4.994635-31.665984 0-61.5339 9.989269-11.687445-118.173056 4.994635-118.173056 4.994635l-3.296459 1.698176s-28.269632 14.983904-36.560726 36.560726c-4.994635 23.274998 1.698176 26.671349-23.274997 54.940981-18.280363 19.978539 3.296459 44.951712-18.280363 64.930251-13.385621 11.587552-18.380256 26.571456-20.078431 39.957077z" fill="#A5DAEF" p-id="4966"></path><path d="M566.291679 495.567652c-3.296459 0-8.291094-3.296459-9.989269-8.291094 0-3.296459 1.698176-9.989269 8.291093-9.989269 0 0 94.898059-18.280363 171.415862-18.280363 4.994635 0 9.989269 3.296459 9.989269 9.989269 0 4.994635-3.296459 9.989269-9.989269 9.98927-74.819627-1.798068-168.01951 16.582187-169.717686 16.582187z" fill="#2C3147" p-id="4967"></path><path d="M1080.938835 674.974929c-16.68208 64.930251-54.940981 121.469515-104.887328 159.728417 8.291094-26.671349 14.983904-53.242806-9.989269-71.523168-28.269632-23.274998-14.983904-41.55536-23.274998-69.924886-9.989269-39.957077-44.951712-29.967808-44.951712-79.914155s-24.973173-44.951712-34.962442-79.914154c-9.989269-33.264267 4.994635-31.665984 0-61.533899-9.989269-11.687445 116.47488 4.994635 116.47488 4.994634l3.296459 1.698176s28.269632 14.983904 36.560726 36.560726c4.994635 23.274998-1.698176 26.671349 23.274997 54.940981 18.280363 19.978539-3.296459 44.951712 18.280363 64.930251 13.485514 11.687445 20.178324 26.671349 20.178324 39.957077z" fill="#A5DAEF" p-id="4968"></path><path d="M1015.509121 493.869476c-1.698176 0-93.199883-16.68208-168.119403-16.68208-4.994635 0-9.989269-3.296459-9.989269-9.989269s3.296459-9.989269 9.989269-9.989269c76.517803 0 169.717686 16.68208 169.717686 18.280363 3.296459 0 8.291094 4.994635 8.291094 9.989269-3.196566 5.094527-6.493025 8.390986-9.889377 8.390986zM677.072676 388.882255c-1.598283 0-1.598283 0 0 0-4.994635 0-9.989269-3.296459-8.291094-8.291093 0-3.296459 3.296459-8.291094 8.291094-4.994635 0 0 28.269632 1.698176 36.560726-18.280363 1.698176-3.296459 4.994635-4.994635 9.989269-3.296459 4.994635 1.698176 4.994635 4.994635 3.296459 9.98927-11.48766 21.576822-41.455468 24.873281-49.846454 24.87328zM898.534777 388.882255c-9.989269 0-38.258902-1.698176-48.248171-26.671349-1.698176-3.296459 0-8.291094 3.296459-9.989269s8.291094 0 9.989269 3.296459c8.291094 19.978539 36.560726 18.280363 36.560726 18.280363 3.296459 0 8.291094 1.698176 8.291094 4.994634s-1.698176 8.291094-4.994635 8.291094c-3.196566 1.798068-3.196566 1.798068-4.894742 1.798068z" fill="#2C3147" p-id="4969"></path><path d="M486.377524 847.09004c-50.745488 0-87.006536-14.484441-108.783143-43.453322-21.776607-43.453322 14.484441-115.975417 94.298703-195.789679h14.48444c7.292167 7.292167 7.292167 7.292167 0 14.484441-72.522095 72.522095-108.783143 130.459858-87.006536 166.720905 14.484441 28.968881 72.522095 43.453322 159.528632 28.968881s195.789679-58.037655 297.280655-115.975417c108.783143-58.037655 195.789679-123.267584 261.019608-188.497512 58.037655-58.037655 79.714369-115.975417 65.229929-145.044191-21.776607-36.261048-101.490976-43.453322-217.466394-14.484441-7.292167 0-14.484441 0-14.48444-7.292166s0-14.484441 7.292166-14.484441c130.459858-36.261048 217.466394-28.968881 239.243001 21.776607 21.776607 36.261048 0 101.490976-65.229929 166.720906-65.229929 65.229929-159.528631 137.752024-261.019608 195.789679-108.783143 58.037655-217.466394 101.490976-304.472929 115.975417-29.168666 7.392059-58.137548 14.584333-79.914155 14.584333z" fill="#2C3147" p-id="4970"></path><path d="M908.024583 649.202614c0 24.673495 20.078431 44.751927 44.751927 44.751927 24.673495 0 44.751927-20.078431 44.751926-44.751927s-20.078431-44.751927-44.751926-44.751926c-24.673495 0-44.751927 20.078431-44.751927 44.751926z" fill="#2C3147" p-id="4971"></path></svg>