<?xml version="1.0" standalone="no"?><!DOCTYPE svg PUBLIC "-//W3C//DTD SVG 1.1//EN" "http://www.w3.org/Graphics/SVG/1.1/DTD/svg11.dtd"><svg t="1493113131938" class="icon" style="" viewBox="0 0 1024 1024" version="1.1" xmlns="http://www.w3.org/2000/svg" p-id="6018" xmlns:xlink="http://www.w3.org/1999/xlink" width="30" height="30"><defs><style type="text/css"></style></defs><path d="M178.794 963.027 178.794 753.179C67.028 677.866 3.209 569.711 3.209 454.113c0-218.059 228.129-395.725 508.475-395.725 280.345 0 508.477 177.447 508.477 395.725 0 218.277-228.132 395.506-508.478 395.506-33.167 0-66.666-2.629-99.616-7.772L178.794 963.027zM511.683 122.099c-242.688 0-439.948 148.985-439.948 331.796 0 99.177 58.345 192.553 160.369 256.043l15.326 9.415 0 135.083 153.036-79.474 12.149 2.08c32.733 5.693 66.119 8.539 99.178 8.539 242.688 0 439.949-148.986 439.949-331.796C951.634 270.975 754.265 122.099 511.683 122.099z" p-id="6019" fill="#515151"></path></svg>