<?xml version="1.0" standalone="no"?><!DOCTYPE svg PUBLIC "-//W3C//DTD SVG 1.1//EN" "http://www.w3.org/Graphics/SVG/1.1/DTD/svg11.dtd"><svg t="1487667960976" class="icon" style="" viewBox="0 0 1049 1024" version="1.1" xmlns="http://www.w3.org/2000/svg" p-id="10742" xmlns:xlink="http://www.w3.org/1999/xlink" width="49.171875" height="48"><defs><style type="text/css"></style></defs><path d="M524.887872 0c144.10984 0 275.331808 51.551487 370.233409 133.565217 96.073227 83.185355 154.654462 199.176201 154.654463 325.711671 0 105.446224-41.006865 202.691076-108.961099 280.018307-67.954233 78.498856-164.02746 137.080092-275.331807 164.027459-14.059497 11.716247-26.947368 28.118993-41.006865 44.52174-31.633867 37.491991-64.439359 76.155606-99.588101 76.155606s-67.954233-38.663616-99.588101-76.155606c-14.059497-16.402746-28.118993-32.805492-41.006865-44.52174-111.304348-28.118993-207.377574-85.528604-275.331808-164.027459C39.83524 661.967963 0 564.723112 0 459.276888c0-126.535469 58.581236-242.526316 154.654462-325.711671C249.556064 51.551487 380.778032 0 524.887872 0z m215.578947 410.06865c29.290618 0 52.723112 23.432494 52.723112 52.723112 0 28.118993-23.432494 52.723112-52.723112 52.723112-28.118993 0-51.551487-24.604119-51.551487-52.723112 0-29.290618 23.432494-52.723112 51.551487-52.723112z m-213.235698 0c29.290618 0 52.723112 23.432494 52.723112 52.723112 0 28.118993-23.432494 52.723112-52.723112 52.723112s-52.723112-24.604119-52.723112-52.723112c0-29.290618 23.432494-52.723112 52.723112-52.723112z m-214.407322 0c29.290618 0 52.723112 23.432494 52.723112 52.723112 0 28.118993-23.432494 52.723112-52.723112 52.723112s-52.723112-24.604119-52.723113-52.723112c0-29.290618 23.432494-52.723112 52.723113-52.723112z m562.379862-253.070938C786.160183 78.498856 661.967963 30.462243 524.887872 30.462243S263.615561 78.498856 174.572082 156.997712C85.528604 234.324943 30.462243 342.114416 30.462243 459.276888c0 98.416476 37.491991 188.631579 100.759725 260.100686 65.610984 73.812357 156.997712 130.050343 263.615561 154.654463l7.029748 3.514874c15.231121 14.059497 30.462243 32.805492 45.693364 50.379862 28.118993 32.805492 56.237986 65.610984 77.327231 65.610984s49.208238-32.805492 76.155606-65.610984c15.231121-17.574371 30.462243-36.320366 45.693364-50.379862l7.029748-3.514874c106.617849-24.604119 199.176201-79.670481 264.787186-154.654463 63.267735-71.469108 100.759725-161.684211 100.759725-260.100686 0-117.162471-55.066362-224.951945-144.10984-302.279176z" fill="#707070" p-id="10743"></path></svg>