<?xml version="1.0" standalone="no"?><!DOCTYPE svg PUBLIC "-//W3C//DTD SVG 1.1//EN" "http://www.w3.org/Graphics/SVG/1.1/DTD/svg11.dtd"><svg t="1483588022002" class="icon" style="" viewBox="0 0 1024 1024" version="1.1" xmlns="http://www.w3.org/2000/svg" p-id="6466" xmlns:xlink="http://www.w3.org/1999/xlink" width="64" height="64"><defs><style type="text/css"></style></defs><path d="M784.441147 124.05374c-63.512332 0-115.500301 51.975135-115.500301 115.500301s51.987969 115.500301 115.500301 115.5003c63.525165 0 115.513134-51.975135 115.513134-115.5003s-51.987969-115.500301-115.513134-115.500301z m0 173.250451c-31.756166 0-57.743734-25.987568-57.743734-57.75015s25.987568-57.75015 57.743734-57.750151c31.762583 0 57.756567 25.987568 57.756567 57.750151s-25.993984 57.75015-57.756567 57.75015zM917.061159 0H614.938039c-29.414077 0-56.14598 10.696611-74.863445 32.083417l-507.989573 507.983156c-42.780028 42.786445-42.780028 109.622619 0 152.39623L334.208141 994.585923c21.386806 21.393222 48.125125 29.414077 74.863445 29.414077s53.470223-10.703028 74.863445-32.083417L991.918187 483.92701c18.711049-21.386806 32.083417-48.125125 32.083417-74.863445V106.946862C1024.001604 48.125125 975.876479 0 917.061159 0z m31.82675 413.920995c0 12.737117-5.08843 25.474233-15.28454 35.670342l-484.016844 484.016844c-10.183277 10.189693-22.92681 15.28454-35.663926 15.28454-12.7307 0-25.474233-5.094847-35.663926-15.28454l-290.412673-287.865249c-7.64227-10.183277-12.737117-22.920393-12.737117-35.65751 0-12.737117 5.094847-25.493483 15.28454-35.670343l484.016844-484.02326c7.635853-10.189693 22.92681-15.28454 35.676759-15.28454h287.86525c28.008823 0 50.935633 22.92681 50.935633 50.942049v287.871667z" p-id="6467" fill="#ffffff"></path></svg>