<?xml version="1.0" standalone="no"?><!DOCTYPE svg PUBLIC "-//W3C//DTD SVG 1.1//EN" "http://www.w3.org/Graphics/SVG/1.1/DTD/svg11.dtd"><svg t="1483534094331" class="icon" style="" viewBox="0 0 1024 1024" version="1.1" xmlns="http://www.w3.org/2000/svg" p-id="20272" xmlns:xlink="http://www.w3.org/1999/xlink" width="64" height="64"><defs><style type="text/css"></style></defs><path d="M886.385 120.597c0-46.918-38.173-85.088-85.088-85.088h-578.595c-46.915 0-85.088 38.169-85.088 85.088v782.804c0 46.918 38.173 85.088 85.088 85.088h416.929c5.119 0 9.658-2.308 12.778-5.887l0.052 0.046 229.683-263.818c2.607-2.991 4.24-6.852 4.24-11.131v-587.104zM622.613 954.454h-399.911c-28.151 0-51.053-22.9-51.053-51.053v-782.804c0-28.151 22.9-51.053 51.053-51.053h578.595c28.151 0 51.053 22.9 51.053 51.053v570.085h-93.596c-75.067 0-136.14 61.073-136.14 136.14v127.632zM831.981 724.719l-175.332 201.309v-99.204c0-56.3 45.802-102.105 102.105-102.105h73.228z" p-id="20273" fill="#8a8a8a"></path><path d="M282.263 282.263h459.473c9.398 0 17.018-7.62 17.018-17.018s-7.62-17.018-17.018-17.018h-459.473c-9.398 0-17.018 7.62-17.018 17.018 0.001 9.399 7.621 17.018 17.018 17.018z" p-id="20274" fill="#8a8a8a"></path><path d="M282.263 443.931h459.473c9.398 0 17.018-7.62 17.018-17.018s-7.62-17.018-17.018-17.018h-459.473c-9.398 0-17.018 7.62-17.018 17.018 0.001 9.398 7.621 17.018 17.018 17.018z" p-id="20275" fill="#8a8a8a"></path><path d="M758.754 588.578c0-9.398-7.62-17.018-17.018-17.018h-459.473c-9.398 0-17.018 7.62-17.018 17.018s7.62 17.018 17.018 17.018h459.473c9.398 0 17.018-7.62 17.018-17.018z" p-id="20276" fill="#8a8a8a"></path><path d="M512 741.735h-229.737c-9.398 0-17.018 7.62-17.018 17.018s7.62 17.018 17.018 17.018h229.735c9.398 0 17.018-7.62 17.018-17.018s-7.619-17.018-17.017-17.018z" p-id="20277" fill="#8a8a8a"></path></svg>