<?xml version="1.0" standalone="no"?><!DOCTYPE svg PUBLIC "-//W3C//DTD SVG 1.1//EN" "http://www.w3.org/Graphics/SVG/1.1/DTD/svg11.dtd"><svg t="1482313135829" class="icon" style="" viewBox="0 0 1024 1024" version="1.1" xmlns="http://www.w3.org/2000/svg" p-id="2418" xmlns:xlink="http://www.w3.org/1999/xlink" width="200" height="200"><defs><style type="text/css"></style></defs><path d="M904.124188 183.4694c-43.212502-42.044294-102.760129-63.164974-179.024222-63.164974-21.12168 0-42.629097 3.71648-64.536045 10.952574-21.999085 7.333028-42.237163 17.305267-61.204303 29.626913-18.773272 12.417581-35.101201 23.95276-48.694785 34.905334-13.688719 10.852642-26.400101 22.38982-38.715551 34.612533-12.321646-12.321646-25.226297-23.759891-38.718749-34.612533-13.690718-10.853641-29.82278-22.584688-48.692786-34.905334-18.773671-12.41858-39.207417-22.293885-61.207901-29.626913-21.805216-7.333028-43.5109-10.952574-64.534646-10.952574-76.166159 0-135.808522 21.12068-179.024621 63.164974-43.220097 42.042495-64.632979 100.611585-64.632979 175.407674 0 22.782553 4.107615 46.15051 12.125179 70.302135 8.017564 24.151625 17.111398 44.781438 27.279904 61.793904 10.168106 17.111398 21.802618 33.538261 34.612533 49.672122 12.810315 16.129064 22.390819 27.281503 28.25984 33.439328 5.864424 6.057893 10.656775 10.458909 13.980921 13.295985L489.560262 894.404586c5.963357 5.953963 13.688719 9.287703 22.390819 9.287703s16.32693-3.035942 22.390819-9.287703l317.677814-305.946768c77.823036-77.833029 116.838384-154.289991 116.838384-229.381879C968.756167 284.080985 947.342686 225.511895 904.124188 183.4694zM807.819682 540.347636 511.949083 825.561461 215.588615 539.76703c-63.55431-63.556709-95.430498-123.883807-95.430498-181.085824 0-27.572306 3.715881-51.818667 10.951975-72.941346 7.332429-21.117682 16.620132-37.740212 28.060975-50.255727 11.34171-12.417581 25.225897-22.588685 41.553627-30.407384 16.330328-7.823696 32.266124-13.103116 47.911316-15.839261 15.645392-2.739143 32.266124-4.108215 49.86659-4.108215 17.793936 0 36.765473 4.302083 57.199019 13.004183 20.435545 8.704099 39.206818 19.457808 56.320615 32.754792 17.305267 13.102117 31.774857 25.421764 44.095903 36.764873 12.321646 11.34231 22.390819 21.805216 30.60425 31.38572 5.963557 7.429962 14.46959 11.148441 25.030429 11.148441 10.462906 0 18.773272-3.718479 25.034027-11.148441 8.1115-9.582503 18.278607-19.946476 30.602252-31.38572 12.317649-11.341311 26.983705-23.566022 44.095903-36.764873 17.304268-13.103116 35.88567-23.953759 56.319615-32.754792 20.436144-8.799034 39.403085-13.004183 57.199019-13.004183 17.797933 0 34.2186 1.469004 49.86799 4.108215 15.641395 2.639211 31.582587 8.015565 47.90552 15.839261 16.332926 7.821697 30.215314 17.991802 41.555625 30.407384 11.34231 12.41858 20.827679 29.138244 28.062973 50.255727 7.33103 21.12068 10.952574 45.36924 10.952574 72.941346C903.638517 416.076092 871.666194 476.406189 807.819682 540.347636z" p-id="2419" fill="#d81e06"></path></svg>