<?xml version="1.0" standalone="no"?><!DOCTYPE svg PUBLIC "-//W3C//DTD SVG 1.1//EN" "http://www.w3.org/Graphics/SVG/1.1/DTD/svg11.dtd"><svg t="1488353883939" class="icon" style="" viewBox="0 0 1024 1024" version="1.1" xmlns="http://www.w3.org/2000/svg" p-id="4392" xmlns:xlink="http://www.w3.org/1999/xlink" width="48" height="48"><defs><style type="text/css"></style></defs><path d="M860.925 297.46c-11.323 0-20.525 9.181-20.525 20.528l0 554.248c0 22.653-18.387 41.056-41.059 41.056L224.543 913.292c-22.674 0-41.057-18.403-41.057-41.056l0-554.248c0-11.345-9.202-20.528-20.529-20.528-9.545 0-17.584 6.523-19.874 15.368-0.216-0.12-0.441-0.228-0.655-0.352l0 559.759c0 45.344 36.747 82.111 82.115 82.111l574.798 0c45.347 0 82.115-36.767 82.115-82.111L881.456 317.988C881.456 306.641 872.253 297.46 860.925 297.46zM368.244 790.123 368.244 338.516c0-11.347-9.205-20.528-20.529-20.528-11.328 0-20.529 9.18-20.529 20.528l0 451.607c0 11.328 9.202 20.529 20.529 20.529C359.039 810.653 368.244 801.451 368.244 790.123zM696.698 790.123 696.698 338.516c0-11.347-9.199-20.528-20.527-20.528-11.329 0-20.53 9.18-20.53 20.528l0 451.607c0 11.328 9.203 20.529 20.53 20.529C687.498 810.653 696.698 801.451 696.698 790.123zM922.632 153.765 686.211 153.765l-75.738-75.734c-4.337-4.337-10.052-6.449-15.74-6.358-0.226-0.007-0.45-0.019-0.678-0.019L429.828 71.654c-0.202 0-0.4 0.011-0.6 0.016-5.674-0.079-11.373 2.033-15.699 6.36l-75.738 75.735-236.42 0c-11.327 0-20.529 9.183-20.529 20.528 0 11.327 9.203 20.528 20.529 20.528l246.343 0c0.345 0 0.686-0.009 1.029-0.025 5.756 0.146 11.56-1.958 15.952-6.348l75.738-75.737 143.137 0 75.739 75.737c4.391 4.391 10.194 6.494 15.951 6.348 0.341 0.017 0.683 0.025 1.029 0.025l246.343 0c11.326 0 20.528-9.202 20.528-20.528C943.16 162.949 933.958 153.765 922.632 153.765zM532.473 790.123 532.473 338.516c0-11.347-9.205-20.528-20.533-20.528-11.324 0-20.527 9.18-20.527 20.528l0 451.607c0 11.328 9.203 20.529 20.527 20.529C523.268 810.653 532.473 801.451 532.473 790.123z" p-id="4393" fill="#707070"></path></svg>