<?xml version="1.0" standalone="no"?><!DOCTYPE svg PUBLIC "-//W3C//DTD SVG 1.1//EN" "http://www.w3.org/Graphics/SVG/1.1/DTD/svg11.dtd"><svg t="1493086997727" class="icon" style="" viewBox="0 0 1024 1024" version="1.1" xmlns="http://www.w3.org/2000/svg" p-id="5450" xmlns:xlink="http://www.w3.org/1999/xlink" width="20" height="20"><defs><style type="text/css"></style></defs><path d="M511.7 64.3c-247 0-447.3 200.3-447.3 447.3S264.6 959 511.7 959 959 758.7 959 511.7 758.7 64.3 511.7 64.3zM928.3 511.7c0 56.3-11 110.8-32.7 162.2-21 49.6-51 94.2-89.3 132.4-38.3 38.3-82.8 68.3-132.4 89.3-51.3 21.7-105.9 32.7-162.2 32.7s-110.8-11-162.2-32.7c-49.6-21-94.2-51-132.4-89.3-38.3-38.3-68.3-82.8-89.3-132.4-21.7-51.3-32.7-105.9-32.7-162.2s11-110.8 32.7-162.2c21-49.6 51-94.2 89.3-132.4s82.8-68.3 132.4-89.3C400.9 106.1 455.4 95 511.7 95s110.8 11 162.2 32.7c49.6 21 94.2 51 132.4 89.3s68.3 82.8 89.3 132.4C917.3 400.8 928.3 455.4 928.3 511.7zM511.7 166.7c-190.5 0-345 154.5-345 345s154.5 345 345 345 345-154.5 345-345S702.2 166.7 511.7 166.7z" p-id="5451" fill="#4285f4"></path></svg>