<?xml version="1.0" standalone="no"?><!DOCTYPE svg PUBLIC "-//W3C//DTD SVG 1.1//EN" "http://www.w3.org/Graphics/SVG/1.1/DTD/svg11.dtd"><svg t="1487665486530" class="icon" style="" viewBox="0 0 1024 1024" version="1.1" xmlns="http://www.w3.org/2000/svg" p-id="11351" xmlns:xlink="http://www.w3.org/1999/xlink" width="200" height="200"><defs><style type="text/css"></style></defs><path d="M496.074216 1014.271662c8.332099 8.181999 22.37004 8.181999 30.710198 0 0 0 308.926359-303.47438 309.738313-304.669141 64.262235-73.426437 102.9046-168.806862 102.9046-273.156055 0.199463-232.041563-191.579857-419.992811-427.895763-419.992811-236.523428 0-428.099255 187.951248-428.099255 419.992811 0 104.349193 38.841827 199.728611 102.900571 273.156055C187.147857 710.797282 496.074216 1014.271662 496.074216 1014.271662zM511.530558 244.708449c101.685662 0 184.051652 80.805548 184.051652 180.564078 0 99.770619-82.36599 180.572137-184.051652 180.572137s-184.055682-80.801518-184.055682-180.572137C327.474876 325.513997 409.845903 244.708449 511.530558 244.708449z" p-id="11352" fill="#ff4055"></path></svg>