<?xml version="1.0" standalone="no"?><!DOCTYPE svg PUBLIC "-//W3C//DTD SVG 1.1//EN" "http://www.w3.org/Graphics/SVG/1.1/DTD/svg11.dtd"><svg t="1487665559873" class="icon" style="" viewBox="0 0 1024 1024" version="1.1" xmlns="http://www.w3.org/2000/svg" p-id="12622" xmlns:xlink="http://www.w3.org/1999/xlink" width="200" height="200"><defs><style type="text/css"></style></defs><path d="M1010.126758 330.801297c0-11.52333-9.962803-20.854867-22.249976-20.854867H639.088679a2677.769305 2677.769305 0 0 0 92.716949-51.805115 22.023742 22.023742 0 0 0 2.72332-1.892579c30.053827-24.34203 46.093319-50.509744 47.720743-77.80741 1.494846-24.973296-9.431275-50.077953-31.614354-72.527404-14.212593-14.412068-39.517942-22.747447-53.265904-26.401245-18.165604-4.913896-59.044597-0.43179-71.531245 4.782535-58.646864 24.674083-92.850743 85.710998-112.311718 139.408692-21.020285-51.771058-53.630797-101.053544-76.811251-132.767634-15.375386-21.120023-51.240746-51.306427-64.756393-58.346435-37.226412-19.493815-71.364611-23.278975-101.418437-11.291014-50.5438 20.091024-67.214558 77.80741-68.243557 81.891781-18.331022 96.669959 91.921481 167.370464 177.034054 206.789885H36.122002c-12.287173 0-22.249976 9.331537-22.249976 20.82081v125.827365c0 11.490489 9.962803 20.822027 22.249976 20.822026h951.75478c12.287173 0 22.249976-9.331537 22.249976-20.822026v-125.827365z m-524.827215-24.640027C412.606721 284.176451 227.934234 206.269304 245.733728 112.024668c0.132578-0.39895 12.054858-40.515317 42.241262-52.536117 5.711796-2.29153 11.888223-3.420266 18.530496-3.420267 12.917222 0 27.562822 4.24979 43.768949 12.751804 7.305163 3.819216 37.890518 29.322824 49.7459 45.52895 26.499766 36.263094 85.843576 124.597674 89.729689 193.637915a25.1302 25.1302 0 0 0-4.450481-1.825683z m50.808956 3.75232c9.166119-52.901011 40.381523-159.267401 107.496342-187.461488 5.379743-1.794059 22.315656-3.487163 33.341515-3.487164 3.520004 0 6.475639 0.199475 8.168745 0.564369 17.135388 4.550219 28.990771 10.792327 32.809987 14.611543 14.014334 14.213809 20.688232 28.326665 19.891548 41.976106-0.929262 15.275649-11.423592 31.282301-31.182563 47.586948-36.828678 21.58587-132.667897 75.582777-167.105308 86.242526h-3.420266v-0.03284z m-54.594116 679.943346c0 11.490489-9.763328 20.822027-21.785345 20.822027H131.89554c-12.022017 0-21.784129-9.331537-21.784129-20.822027V565.652691c0-11.490489 9.763328-20.822027 21.784129-20.822027h327.833498c12.022017 0 21.785345 9.331537 21.785345 20.822027v424.204245z m432.374206 0c0 11.490489-9.763328 20.822027-21.785345 20.822027H568.486695c-12.020801 0-21.784129-9.331537-21.784128-20.822027V565.652691c0-11.490489 9.763328-20.822027 21.784128-20.822027h323.616549c12.022017 0 21.785345 9.331537 21.785345 20.822027v424.204245z" fill="#ff8447" p-id="12623"></path></svg>