<?xml version="1.0" standalone="no"?><!DOCTYPE svg PUBLIC "-//W3C//DTD SVG 1.1//EN" "http://www.w3.org/Graphics/SVG/1.1/DTD/svg11.dtd"><svg t="1494992715904" class="icon" style="" viewBox="0 0 1024 1024" version="1.1" xmlns="http://www.w3.org/2000/svg" p-id="4452" xmlns:xlink="http://www.w3.org/1999/xlink" width="200" height="200"><defs><style type="text/css"></style></defs><path d="M943.335 545.177h-862.668c-18.316 0-33.183-14.863-33.183-33.177 0-18.316 14.866-33.183 33.183-33.183h862.668c18.348 0 33.183 14.866 33.183 33.183-0.001 18.313-14.834 33.177-33.183 33.177v0zM843.795 943.338h-199.076c-18.348 0-33.183-14.834-33.183-33.183s14.834-33.183 33.183-33.183h199.073c18.316 0 33.182-14.866 33.182-33.177v-165.895c0-18.348 14.829-33.183 33.183-33.183 18.348 0 33.177 14.834 33.177 33.183v165.9c0.001 54.875-44.658 99.539-99.538 99.539v0zM346.098 943.338h-165.9c-54.875 0-99.534-44.663-99.534-99.539v-165.9c0-18.348 14.863-33.183 33.177-33.183 18.316 0 33.182 14.834 33.182 33.183v165.9c0 18.313 14.894 33.177 33.177 33.177h165.9c18.316 0 33.183 14.834 33.183 33.183s-14.866 33.182-33.182 33.182v0zM113.839 379.277c-18.313 0-33.177-14.866-33.177-33.177v-165.9c0-54.882 44.659-99.539 99.534-99.539h165.9c18.316 0 33.183 14.866 33.183 33.182 0 18.311-14.866 33.177-33.183 33.177h-165.9c-18.281 0-33.177 14.898-33.177 33.183v165.9c0 18.313-14.867 33.177-33.183 33.177v0zM910.161 379.277c-18.353 0-33.183-14.866-33.183-33.177v-165.9c0-18.284-14.866-33.183-33.182-33.183h-199.076c-18.348 0-33.183-14.866-33.183-33.177 0-18.316 14.834-33.182 33.183-33.182h199.073c54.882 0 99.539 44.659 99.539 99.539v165.9c0.001 18.313-14.827 33.177-33.174 33.177v0zM910.161 379.277z" p-id="4453" fill="#888"></path></svg>