<?xml version="1.0" standalone="no"?><!DOCTYPE svg PUBLIC "-//W3C//DTD SVG 1.1//EN" "http://www.w3.org/Graphics/SVG/1.1/DTD/svg11.dtd"><svg t="1492245597288" class="icon" style="" viewBox="0 0 1024 1024" version="1.1" xmlns="http://www.w3.org/2000/svg" p-id="2272" xmlns:xlink="http://www.w3.org/1999/xlink" width="200" height="200"><defs><style type="text/css"></style></defs><path d="M860.992 491.968c0 0 19.264-238.336-218.688-265.472C438.272 207.296 376.192 381.312 376.192 381.312S314.752 327.04 231.488 371.328c-74.56 42.24-61.376 119.68-61.376 119.68s-165.696 29.504-165.696 184.448c3.712 154.816 179.904 156.288 179.904 156.288l277.312 0 0-161.792L374.336 669.952l146.752-144.896 146.688 144.896L580.416 669.952l0 161.792 252.032 0c0 0 163.968 0.192 187.072-147.072C1030.528 523.712 860.992 491.968 860.992 491.968z" p-id="2273" fill="#87a7d6"></path></svg>