<?xml version="1.0" standalone="no"?><!DOCTYPE svg PUBLIC "-//W3C//DTD SVG 1.1//EN" "http://www.w3.org/Graphics/SVG/1.1/DTD/svg11.dtd"><svg class="icon" style="" viewBox="0 0 1024 1024" version="1.1" xmlns="http://www.w3.org/2000/svg" p-id="4547" xmlns:xlink="http://www.w3.org/1999/xlink" width="200" height="200"><defs><style type="text/css"><![CDATA[

]]></style></defs><path d="M521.691221 514.311649l130.169665 0 0 164.454516L972.168006 404.502707 651.860886 128.084167l0 158.965501c-336.348468 5.53404-399.75559 273.888927-411.648454 368.565217l0.704035 0C269.0799 514.675946 521.691221 514.311649 521.691221 514.311649zM790.630417 825.414129 126.348128 825.414129c-25.734104 0-46.667879-20.936845-46.667879-46.666856L79.680249 222.725664c0-25.732058 20.933775-46.666856 46.667879-46.666856l427.910836 0 0 31.112602L126.348128 207.17141c-8.580422 0-15.557324 6.975878-15.557324 15.555278l0 556.021609c0 8.578376 6.976902 15.556301 15.557324 15.556301l664.281265 0c8.579399 0 15.555278-6.976902 15.555278-15.556301L806.184671 665.881716l31.111578 0 0 112.865557C837.297272 804.477284 816.360428 825.414129 790.630417 825.414129z" p-id="4548" fill="#515151"></path></svg>