<?xml version="1.0" standalone="no"?><!DOCTYPE svg PUBLIC "-//W3C//DTD SVG 1.1//EN" "http://www.w3.org/Graphics/SVG/1.1/DTD/svg11.dtd"><svg t="1487663544931" class="icon" style="" viewBox="0 0 1024 1024" version="1.1" xmlns="http://www.w3.org/2000/svg" p-id="2601" xmlns:xlink="http://www.w3.org/1999/xlink" width="200" height="200"><defs><style type="text/css"></style></defs><path d="M895.422088 932.379303 128.577912 932.379303c-16.08535 0-31.392988-4.673439-43.10268-13.161764-13.043061-9.452279-20.522406-23.038716-20.522406-37.274952L64.952826 326.086753c0-14.230096 7.481392-27.812439 20.524452-37.264719 11.709693-8.485255 27.01733-13.158694 43.100634-13.158694l766.844176 0c16.08228 0 31.388894 4.673439 43.09961 13.158694 13.042037 9.452279 20.524452 23.034623 20.524452 37.264719l0 555.85481c0 14.236236-7.481392 27.821649-20.522406 37.274952C926.814052 927.70484 911.507438 932.379303 895.422088 932.379303zM128.577912 307.056328c-18.995633 0-32.234145 10.029424-32.234145 19.031449l0 555.85481c0 9.008164 13.238512 19.044752 32.234145 19.044752l766.844176 0c18.99461 0 32.232099-10.037611 32.232099-19.044752L927.654186 326.086753c0-9.002025-13.238512-19.031449-32.232099-19.031449L128.577912 307.055305z" p-id="2602" fill="#515151"></path><path d="M750.312152 693.369767l71.091128 0 0 71.358211L750.312152 764.727978 750.312152 693.369767z" p-id="2603" fill="#515151"></path><path d="M192.273606 506.981706 750.312152 506.981706l0 31.390941L192.273606 538.372647 192.273606 506.981706z" p-id="2604" fill="#515151"></path><path d="M895.422088 932.379303 128.577912 932.379303c-16.08535 0-31.392988-4.673439-43.10268-13.161764-13.043061-9.452279-20.522406-23.038716-20.522406-37.274952L64.952826 135.059022c0-23.952528 19.487843-43.439348 43.442418-43.439348l641.378649 0c23.953551 0 43.440371 19.48682 43.440371 43.439348l0 140.605342 102.208846 0c16.08228 0 31.388894 4.673439 43.09961 13.158694 13.042037 9.452279 20.524452 23.034623 20.524452 37.264719l0 555.85481c0 14.235213-7.481392 27.821649-20.522406 37.274952C926.814052 927.70484 911.507438 932.379303 895.422088 932.379303zM108.395244 123.010615c-6.644327 0-12.050454 5.405103-12.050454 12.047384l0 746.883565c0 9.009188 13.238512 19.044752 32.234145 19.044752l766.844176 0c18.99461 0 32.232099-10.036587 32.232099-19.044752L927.65521 326.086753c0-9.002025-13.238512-19.031449-32.232099-19.031449L761.8223 307.055305 761.8223 135.059022c0-6.643304-5.40408-12.047384-12.048407-12.047384L108.395244 123.011638z" p-id="2605" fill="#515151"></path></svg>