<?xml version="1.0" standalone="no"?><!DOCTYPE svg PUBLIC "-//W3C//DTD SVG 1.1//EN" "http://www.w3.org/Graphics/SVG/1.1/DTD/svg11.dtd"><svg class="icon" style="" viewBox="0 0 1024 1024" version="1.1" xmlns="http://www.w3.org/2000/svg" p-id="27042" xmlns:xlink="http://www.w3.org/1999/xlink" width="60" height="60"><defs><style type="text/css"><![CDATA[

]]></style></defs><path d="M871.585 1001.436h-720.22c-7.21 0-14.092-3.012-18.983-8.348-4.869-5.309-7.315-12.418-6.674-19.629l59.763-695.518c1.131-13.317 12.263-23.547 25.63-23.547h611.359c13.525 0 24.754 10.46 25.684 23.957l49.097 695.518c0.515 7.111-1.957 14.142-6.852 19.372s-11.667 8.191-18.806 8.191zM179.412 949.917h664.505l-45.465-643.997h-563.704l-55.331 643.997z" p-id="27043" fill="#fff"></path><path d="M725.447 207.311h-51.521c0-121.613-114.324-148.249-158.374-148.249s-158.374 26.637-158.374 148.249h-51.521c0-146.573 125.527-199.771 209.891-199.771s209.891 53.192 209.891 199.771z" p-id="27044" fill="#fff"></path><path d="M276.864 379.595c0-30.888 25.041-55.926 55.926-55.926s55.926 25.041 55.926 55.926c0 30.888-25.041 55.926-55.926 55.926-30.888 0-55.926-25.041-55.926-55.926z" p-id="27045" fill="#fff"></path><path d="M636.963 379.595c0-30.888 25.063-55.926 55.926-55.926 30.888 0 55.926 25.041 55.926 55.926 0 30.888-25.041 55.926-55.926 55.926-30.888 0-55.926-25.041-55.926-55.926z" p-id="27046" fill="#fff"></path></svg>