<?xml version="1.0" standalone="no"?><!DOCTYPE svg PUBLIC "-//W3C//DTD SVG 1.1//EN" "http://www.w3.org/Graphics/SVG/1.1/DTD/svg11.dtd"><svg t="1487666057865" class="icon" style="" viewBox="0 0 1024 1024" version="1.1" xmlns="http://www.w3.org/2000/svg" p-id="17579" xmlns:xlink="http://www.w3.org/1999/xlink" width="200" height="200"><defs><style type="text/css"></style></defs><path d="M512 65.344C265.344 65.344 65.344 265.28 65.344 512c0 246.72 200 446.656 446.656 446.656 246.72 0 446.656-199.936 446.656-446.656C958.656 265.28 758.72 65.344 512 65.344zM487.808 785.856c-66.368-4.928-98.816-52.032-93.312-109.312 5.632-58.816 84.8-138.048 70.528-188.032-7.04-24.704-112.192-6.272-117.568-23.552C340.864 443.648 419.52 380.224 512 394.496 530.944 397.376 576.64 440.896 582.592 464.96c13.376 54.912-17.472 121.6-47.04 164.608C514.944 662.656 505.92 663.808 512 700.032c19.136 18.176 30.784 26.496 93.952 23.488C582.592 777.216 507.968 787.584 487.808 785.856zM535.552 370.944c-38.976 0-70.592-31.552-70.592-70.528s31.616-70.528 70.592-70.528 70.464 31.552 70.464 70.528S574.528 370.944 535.552 370.944z" p-id="17580" fill="#2384e8"></path></svg>