<?xml version="1.0" standalone="no"?><!DOCTYPE svg PUBLIC "-//W3C//DTD SVG 1.1//EN" "http://www.w3.org/Graphics/SVG/1.1/DTD/svg11.dtd"><svg t="1482721914155" class="icon" style="" viewBox="0 0 1024 1024" version="1.1" xmlns="http://www.w3.org/2000/svg" p-id="1844" xmlns:xlink="http://www.w3.org/1999/xlink" width="200" height="200"><defs><style type="text/css"></style></defs><path d="M213.333333 512l640 0 0 42.666667-640 0 0-42.666667Z" p-id="1845" fill="#d81e06"></path><path d="M213.333333 213.333333l64 0 0 213.333333-64 0 0-213.333333Z" p-id="1846" fill="#d81e06"></path><path d="M426.666667 213.333333l0 64-213.333333 0 0-64 213.333333 0Z" p-id="1847" fill="#d81e06"></path><path d="M213.333333 853.333333l0-64 213.333333 0 0 64-213.333333 0Z" p-id="1848" fill="#d81e06"></path><path d="M213.333333 640l64 0 0 213.333333-64 0 0-213.333333Z" p-id="1849" fill="#d81e06"></path><path d="M853.333333 213.333333l0 64-213.333333 0 0-64 213.333333 0Z" p-id="1850" fill="#d81e06"></path><path d="M853.333333 426.666667l-64 0 0-213.333333 64 0 0 213.333333Z" p-id="1851" fill="#d81e06"></path><path d="M853.333333 853.333333l-64 0 0-213.333333 64 0 0 213.333333Z" p-id="1852" fill="#d81e06"></path><path d="M640 853.333333l0-64 213.333333 0 0 64-213.333333 0Z" p-id="1853" fill="#d81e06"></path></svg>