<?xml version="1.0" standalone="no"?><!DOCTYPE svg PUBLIC "-//W3C//DTD SVG 1.1//EN" "http://www.w3.org/Graphics/SVG/1.1/DTD/svg11.dtd"><svg t="1487664969760" class="icon" style="" viewBox="0 0 1024 1024" version="1.1" xmlns="http://www.w3.org/2000/svg" p-id="6276" xmlns:xlink="http://www.w3.org/1999/xlink" width="200" height="200"><defs><style type="text/css"></style></defs><path d="M995.912803 660.346653 858.219791 137.198755c-8.773827-33.347502-42.438555-53.133128-75.185376-44.190455L71.483566 287.107997c-32.746822 8.921183-52.173267 43.197848-43.398416 76.524884L165.779186 886.802268c8.774851 33.345456 42.439578 53.131081 75.1864 44.189432l711.538569-194.099696C985.262232 727.97082 1004.6897 693.694155 995.912803 660.346653zM347.548042 772.519432c-43.672662 11.917424-88.548732-14.468526-100.254332-58.911738-11.69639-44.464701 14.216793-90.153276 57.879222-102.049211 43.662429-11.918447 88.548732 14.449084 100.245122 58.912761C417.123654 714.913433 391.210471 760.602008 347.548042 772.519432zM154.81139 523.158131l-31.775704-120.715339L795.04496 219.123626l31.777751 120.735805L154.81139 523.158131z" p-id="6277" fill="#2384e8"></path></svg>