<?xml version="1.0" standalone="no"?><!DOCTYPE svg PUBLIC "-//W3C//DTD SVG 1.1//EN" "http://www.w3.org/Graphics/SVG/1.1/DTD/svg11.dtd"><svg t="1492113937119" class="icon" style="" viewBox="0 0 1024 1024" version="1.1" xmlns="http://www.w3.org/2000/svg" p-id="2986" xmlns:xlink="http://www.w3.org/1999/xlink" width="32" height="32"><defs><style type="text/css"></style></defs><path d="M312.419226 338.396131c11.041015-34.731669 18.718541-77.872057 23.471296-114.577947 35.755339-273.173713 386.508632-291.746016 530.553658-80.577471 83.648482 122.62107 86.280777 210.802948 83.648482 328.305667-3.436607 154.574205-65.368656 309.514007-169.124947 406.470202-215.409465 201.22432-510.518969 193.327435-658.585555-19.815331-69.609576-100.319683-69.243979-264.253158 26.981022-348.486595 61.420214-53.815806 136.075022-86.427015 163.056044-171.318525z m94.616377 76.48279c-2.486056 10.090464-8.774316 26.834784-18.86478 42.701673-8.920555 13.965787-19.230377 24.275608-31.148822 29.978914-11.406611 5.483948-18.352945 22.593864-15.647531 38.168275 2.778533 15.501292 14.258264 23.690654 25.664875 18.279826 20.180927-9.724867 37.290844-26.834784 51.475989-49.136171 14.989457-23.544415 23.983131-47.600666 28.443409-65.149298 4.021562-16.086247-1.681744-32.318732-12.64964-36.413413-11.041015-4.021562-23.251938 5.630186-27.2735 21.570194z" fill="#FFB300" p-id="2987"></path></svg>