<?xml version="1.0" standalone="no"?><!DOCTYPE svg PUBLIC "-//W3C//DTD SVG 1.1//EN" "http://www.w3.org/Graphics/SVG/1.1/DTD/svg11.dtd"><svg t="1490609100385" class="icon" style="" viewBox="0 0 1024 1024" version="1.1" xmlns="http://www.w3.org/2000/svg" p-id="3471" xmlns:xlink="http://www.w3.org/1999/xlink" width="32" height="32"><defs><style type="text/css"></style></defs><path d="M511.984 913.168l-11.232-11.12c-7.824-7.744-192.224-190.448-249.76-264.336a327.424 327.424 0 0 1-69.664-203.04C181.328 252.336 329.664 104 512 104s330.672 148.336 330.672 330.672c0 73.824-23.776 143.632-68.8 201.904-57.52 74.528-242.768 257.728-250.624 265.504l-11.264 11.088zM512 136c-164.688 0-298.672 133.984-298.672 298.672 0 67.136 21.744 130.56 62.912 183.376 48.288 61.984 194.064 208.448 235.776 250.064 41.824-41.664 188.304-188.608 236.528-251.104a295.68 295.68 0 0 0 62.128-182.336C810.672 269.984 676.688 136 512 136z" p-id="3472" fill="#d6204b"></path><path d="M512 546.672c-64.688 0-117.328-52.64-117.328-117.328S447.312 312 512 312s117.328 52.64 117.328 117.328-52.64 117.344-117.328 117.344zM512 344c-47.04 0-85.328 38.288-85.328 85.328S464.96 514.672 512 514.672s85.328-38.288 85.328-85.328S559.04 344 512 344z" p-id="3473" fill="#d6204b"></path></svg>