<?xml version="1.0" standalone="no"?><!DOCTYPE svg PUBLIC "-//W3C//DTD SVG 1.1//EN" "http://www.w3.org/Graphics/SVG/1.1/DTD/svg11.dtd"><svg t="1490609345624" class="icon" style="" viewBox="0 0 1024 1024" version="1.1" xmlns="http://www.w3.org/2000/svg" p-id="10673" xmlns:xlink="http://www.w3.org/1999/xlink" width="32" height="32"><defs><style type="text/css"></style></defs><path d="M682.114934 270.996041l0-99.224886c0-3.631714-1.37737-7.262404-4.1536-10.026354-2.77623-2.764973-6.407943-4.1536-10.015098-4.1536L356.050694 157.591201c-3.619434 0-7.251148 1.387603-10.015098 4.1536-2.77623 2.76395-4.1536 6.39464-4.1536 10.026354l0 99.224886L86.711386 270.996041l0 184.294376 0 28.360931 0 368.576473c0 3.629667 1.388627 7.249101 4.1536 10.027377 2.778276 2.76395 6.395664 4.1536 10.027377 4.1536l822.22653 0c3.607154 0 7.236821-1.388627 10.015098-4.1536 2.77623-2.778276 4.1536-6.39771 4.1536-10.027377L937.287591 483.651348l0-28.360931L937.287591 270.996041 682.114934 270.996041 682.114934 270.996041zM370.230648 185.951109l283.523355 0 0 85.044932L370.230648 270.996041 370.230648 185.951109 370.230648 185.951109zM908.925636 838.044798 115.072317 838.044798 115.072317 483.651348l375.664915 0 0 42.527582 42.528606 0 0-42.527582 375.659799 0L908.925636 838.044798 908.925636 838.044798zM908.925636 455.290417 115.072317 455.290417 115.072317 299.356972l255.159354 0 283.523355 0 255.17061 0L908.925636 455.290417 908.925636 455.290417zM908.925636 455.290417" p-id="10674" fill="#d6204b"></path></svg>