<?xml version="1.0" standalone="no"?><!DOCTYPE svg PUBLIC "-//W3C//DTD SVG 1.1//EN" "http://www.w3.org/Graphics/SVG/1.1/DTD/svg11.dtd"><svg t="1490065645366" class="icon" style="" viewBox="0 0 1024 1024" version="1.1" xmlns="http://www.w3.org/2000/svg" p-id="3598" xmlns:xlink="http://www.w3.org/1999/xlink" width="48" height="48"><defs><style type="text/css"></style></defs><path d="M125.632625 245.360961a301.844167 155.952214 0 1 0 603.688334 0 301.844167 155.952214 0 1 0-603.688334 0Z" fill="#FCAF17" p-id="3599"></path><path d="M672.001601 659.89723m-257.924719 0a257.924719 257.924719 0 1 0 515.849438 0 257.924719 257.924719 0 1 0-515.849438 0Z" fill="#FCAF17" p-id="3600"></path><path d="M434.737762 813.453357c-2.414264 0.029745-4.831833 0.047922-7.26097 0.047922-130.847832 0-242.232828-43.020503-284.103209-103.175506-11.474778 16.486731-17.742611 34.254129-17.742611 52.780013 0 86.128586 135.140959 155.952214 301.84582 155.952214 38.75051 0 75.789058-3.777555 109.826713-10.650194-41.581198-22.627324-76.874733-55.399184-102.565743-94.954449zM386.756533 664.14574c0-6.015005 0.209864-11.978782 0.580018-17.901248-113.123398-7.766627-206.446855-47.90191-243.961315-101.798995-11.474778 16.485079-17.742611 34.254129-17.742611 52.780012 0 81.48844 120.974301 148.367359 275.19307 155.340799-9.116698-27.845836-14.069162-57.563924-14.069162-88.420568zM462.150649 470.662542c-11.378935 0.670904-22.944599 1.022881-34.672205 1.022881-130.847832 0-242.232828-43.020503-284.103208-103.173853-11.474778 16.485079-17.742611 34.254129-17.742611 52.780013 0 81.658645 121.481611 148.649932 276.163072 155.383762 12.276228-39.778349 33.115575-75.835327 60.354952-106.012803z" fill="#FCAF17" p-id="3601"></path><path d="M642.984161 749.760407h-60.217797c-5.615106-0.413118-9.931367-2.756326-12.947132-7.021361a30.479879 30.479879 0 0 1-5.459774-14.19475c0.62133-5.198683 2.444009-9.467022 5.459774-12.793452 3.015765-3.32643 7.332026-5.198683 12.947132-5.613453h60.217797v-19.656176l-60.217797-0.312317c-5.615106-0.418076-9.931367-2.392782-12.947132-5.929076-3.015765-3.534641-4.836791-8.00954-5.459774-13.416435 0.62133-5.198683 2.444009-9.463717 5.459774-12.7918 3.015765-3.329735 7.332026-5.198683 12.947132-5.615106h44.92911l-41.807587-73.634232c-2.080465-2.495235-4.056823-5.666333-5.927424-9.516596-1.872253-3.845307-2.7051-8.060767-2.496888-12.634815 1.039406-5.82497 3.119871-10.557655 6.239741-14.19475 3.119871-3.642052 8.944841-5.980303 17.471606-7.021361 4.992123 0.418076 9.46537 2.131691 13.418087 5.147456 3.95437 3.015765 7.176694 6.29262 9.671929 9.825609l47.425998 86.73835 52.104151-87.361332c2.495235-3.534641 5.720864-6.654512 9.673581-9.361264 3.952717-2.701795 8.422659-4.365836 13.416435-4.990471 3.119871 0.206559 5.981955 0.624635 8.581296 1.247618 2.599341 0.622983 4.888017 1.662389 6.862724 3.121523 1.976359 1.457482 3.6404 3.536294 4.992123 6.238088 1.353376 2.7051 2.341555 6.239741 2.964538 10.608882 0 6.031529-2.080465 11.750741-6.239741 17.16094l-48.359645 78.624703h45.86441c5.406894 0.418076 9.673582 2.287024 12.7918 5.615106s4.888017 7.59477 5.30444 12.7918c-0.414771 5.406894-2.235797 9.985899-5.461425 13.732057-3.223976 3.742853-7.540238 5.823318-12.947133 6.236436l-59.593162 0.312317v19.033193h59.90548c5.406894 0.416423 9.673582 2.495235 12.7918 6.239741 3.118218 3.742853 4.888017 8.217752 5.30444 13.418088-0.414771 5.406894-2.186223 9.931367-5.30444 13.571767-3.118218 3.637095-7.383253 5.666333-12.7918 6.084408l-59.90548-0.31397v33.074263c-0.832847 17.68147-10.504776 26.523857-29.01744 26.523857-9.1514 0-16.276867-2.186223-21.373096-6.553711-5.096229-4.370793-7.852555-11.023653-8.268978-19.970146v-32.449628h-0.001653z" fill="#FFFFFF" p-id="3602"></path></svg>