<?xml version="1.0" standalone="no"?><!DOCTYPE svg PUBLIC "-//W3C//DTD SVG 1.1//EN" "http://www.w3.org/Graphics/SVG/1.1/DTD/svg11.dtd"><svg t="1488352691069" class="icon" style="" viewBox="0 0 1024 1024" version="1.1" xmlns="http://www.w3.org/2000/svg" p-id="2829" xmlns:xlink="http://www.w3.org/1999/xlink" width="48" height="48"><defs><style type="text/css"></style></defs><path d="M577.28 660.84352l-7.24992 129.0752c-0.60416 8.58624 2.1504 12.43136 9.94816 14.65344 1.23904 0.34304 2.44736 0.50176 3.59936 0.50176 6.21056 0 14.39744-4.88448 14.92992-12.11904l7.68512-132.11136 103.21408 0c7.73632 0 13.98272-7.17824 13.98272-16.0512 0-8.85248-6.26176-16.0512-13.99296-16.0512l0 0.01536-100.90496 0 24.36096-364.83584c0.60416-8.57088-1.22368-15.83616-9.0368-18.04288-7.79776-2.2272-18.68288 1.42848-19.30752 10.01984l-7.69024 132.11136L429.32224 388.00896l7.1168-129.19808c0.6144-8.576-2.9184-12.73856-10.7264-14.94528-7.808-2.2272-16.98304 3.45088-17.60768 12.04736l-7.69536 132.11136L302.3104 388.02432c-7.71584 0-13.98784 7.1936-13.98784 16.04608 0 8.87296 6.27712 16.04608 13.98784 16.04608l95.7952 0-14.94528 208.65536L274.33472 628.77184c-7.71584 0-13.99296 7.1936-13.99296 16.0512 0 8.86784 6.27712 16.04608 13.99296 16.04608l106.53696 0-7.0912 126.73536c-0.6144 8.58112 2.5856 15.0016 10.40896 17.23392 1.2288 0.3328 2.432 0.49152 3.57376 0.49152 6.23104 0 13.80352-5.12 14.32576-12.35456l24.93952-372.86912 167.49568 0-14.94016 208.65536M732.81024 420.10112c7.73632 0 13.98784-7.17312 13.98784-16.04608 0-8.8576-6.25664-16.04608-13.98784-16.04608" p-id="2830" fill="#dbdbdb"></path><path d="M732.81024 420.10112 622.42304 420.10112 624.56832 388.00896 732.81024 388.00896Z" p-id="2831" fill="#dbdbdb"></path><path d="M577.29536 660.84352 410.73152 660.84352 412.88192 628.75648 579.59936 628.75648Z" p-id="2832" fill="#dbdbdb"></path></svg>