<?xml version="1.0" standalone="no"?><!DOCTYPE svg PUBLIC "-//W3C//DTD SVG 1.1//EN" "http://www.w3.org/Graphics/SVG/1.1/DTD/svg11.dtd"><svg t="1490610649874" class="icon" style="" viewBox="0 0 1024 1024" version="1.1" xmlns="http://www.w3.org/2000/svg" p-id="16367" xmlns:xlink="http://www.w3.org/1999/xlink" width="32" height="32"><defs><style type="text/css"></style></defs><path d="M960.196859 572.536748 556.671409 753.935168c-38.629809 16.820084-54.008055 16.820084-89.666182 0L63.475683 572.536748c-21.423939-11.359722-27.201525-53.464679-27.201525-76.452229 26.937512 15.396665 64.815191 32.543184 63.418378 31.67235l412.145781 190.006472 412.142711-190.006472c0.722454-0.166799 37.453007-18.689664 63.404052-31.67235C987.384058 519.601118 980.108351 563.265594 960.196859 572.536748zM960.196859 382.527207l-403.526473 181.40149c-38.629809 16.810874-54.008055 16.810874-89.666182 0L63.475683 382.527207c-31.702026-16.820084-30.703279-69.78539 0-89.574085L467.004203 79.887468c35.658128-17.803481 57.96211-18.793018 89.666182 0l403.526473 213.06463C990.900138 309.772182 989.913671 368.676757 960.196859 382.527207zM511.838318 116.060319 99.692536 337.741187l412.145781 173.682691 412.142711-173.682691L511.838318 116.060319zM511.838318 116.060319M511.838318 907.777999l412.142711-190.015681c0.722454-0.166799 37.453007-18.683525 63.404052-31.66314 0 23.51353-7.275707 67.175959-27.187199 76.452229L556.671409 943.944709c-38.629809 16.826224-54.008055 16.826224-89.666182 0L63.475683 762.551406c-21.423939-11.365862-27.201525-53.464679-27.201525-76.452229 26.937512 15.396665 64.815191 32.537044 63.418378 31.66314L511.838318 907.777999z" p-id="16368" fill="#d6204b"></path></svg>