<?xml version="1.0" standalone="no"?><!DOCTYPE svg PUBLIC "-//W3C//DTD SVG 1.1//EN" "http://www.w3.org/Graphics/SVG/1.1/DTD/svg11.dtd"><svg class="icon" style="" viewBox="0 0 1024 1024" version="1.1" xmlns="http://www.w3.org/2000/svg" p-id="2961" xmlns:xlink="http://www.w3.org/1999/xlink" width="200" height="200"><defs><style type="text/css"><![CDATA[

]]></style></defs><path d="M959.438485 508.640134c0 208.678916-200.733303 378.366468-448.405781 378.366468-68.596891 0-132.86152-12.999187-191.349265-36.101323l-169.686952 108.309366 26.716286-197.849258C106.670861 694.217912 63.346835 605.399331 63.346835 508.640134c0-208.677916 200.7373-378.365468 448.40738-378.365468C758.705182 130.274666 959.438485 299.962218 959.438485 508.640134zM213.034547 862.58336l108.427286-70.73684 16.631124-1.561941c52.820588 19.974457 109.812747 41.835436 169.584022 41.835436 216.151849 0 391.992229-151.04719 391.992229-322.185158S723.828828 188.937692 507.678978 188.937692c-216.152449 0-384.863662 149.193047-384.863662 320.996964 0 75.248382 27.619674 148.494521 90.172663 205.099942l18.276009 30.834094L213.034547 862.58336zM262.640114 491.310883c0 29.113261 23.5984 52.711062 52.711661 52.711062 29.111662 0 52.711661-23.598001 52.711661-52.711062 0-29.111263-23.599999-52.713061-52.711661-52.713061C286.238714 438.597823 262.640114 462.199821 262.640114 491.310883L262.640114 491.310883zM471.31923 491.310883c0 29.113261 23.599999 52.711062 52.710662 52.711062 29.11526 0 52.713061-23.598001 52.713061-52.711062 0-29.111263-23.598001-52.713061-52.713061-52.713061C494.919029 438.597823 471.31923 462.199821 471.31923 491.310883L471.31923 491.310883zM679.999744 491.310883c0 29.113261 23.5988 52.711062 52.707065 52.711062 29.114261 0 52.716258-23.598001 52.716258-52.711062 0-29.111263-23.601998-52.713061-52.716258-52.713061C703.598544 438.597823 679.999744 462.199821 679.999744 491.310883L679.999744 491.310883z" p-id="2962" fill="#515151"></path></svg>