<?xml version="1.0" standalone="no"?><!DOCTYPE svg PUBLIC "-//W3C//DTD SVG 1.1//EN" "http://www.w3.org/Graphics/SVG/1.1/DTD/svg11.dtd"><svg t="1487756486341" class="icon" style="" viewBox="0 0 1061 1024" version="1.1" xmlns="http://www.w3.org/2000/svg" p-id="10890" xmlns:xlink="http://www.w3.org/1999/xlink" width="49.734375" height="48"><defs><style type="text/css"></style></defs><path d="M1043.477402 862.548367C1043.477402 968.215457 781.332712 1023.494479 522.379624 1023.494479 263.436138 1023.494479 1.299678 968.215457 1.299678 862.548367 1.299678 768.786344 203.227758 729.702605 290.048357 717.25303 302.934085 715.450812 314.924191 724.371383 316.7703 737.276314 318.62601 750.179873 309.657432 762.14392 296.744272 763.996886 115.921631 789.927442 48.529063 838.207435 48.529063 862.548367 48.529063 908.923273 233.124844 976.265093 522.379624 976.265093 811.653606 976.265093 996.249386 908.923273 996.249386 862.548367 996.249386 838.01542 928.210818 789.474831 745.627105 763.659483 732.712574 761.831206 723.717937 749.878131 725.546216 736.971829 727.379981 724.057298 739.371458 715.155928 752.231126 716.89094 839.804707 729.281538 1043.477402 768.26104 1043.477402 862.548367L1043.477402 862.548367ZM422.470309 301.578207C422.470309 246.481602 467.280276 201.662034 522.368653 201.662034 577.476231 201.662034 622.313629 246.481602 622.313629 301.578207 622.313629 356.673443 577.47486 401.49301 522.368653 401.49301 467.281648 401.491639 422.470309 356.672071 422.470309 301.578207L422.470309 301.578207ZM669.544386 301.578207C669.544386 220.438577 603.524741 154.432649 522.370024 154.432649 441.242737 154.432649 375.243666 220.438577 375.243666 301.578207 375.243666 382.713723 441.242737 448.725138 522.370024 448.725138 603.524741 448.723767 669.544386 382.712353 669.544386 301.578207L669.544386 301.578207ZM522.378253 47.891879C667.698278 47.891879 785.916438 166.108669 785.916438 311.410864 785.916438 512.749177 581.810333 738.955094 522.184865 800.729785 462.393437 740.071537 258.868871 518.37391 258.868871 311.410864 258.868871 166.108669 377.077431 47.891879 522.378253 47.891879L522.378253 47.891879ZM506.25429 851.334557 522.581243 866.582098 538.714807 851.132941C550.733714 839.618763 833.144452 566.213634 833.144452 311.40949 833.144452 140.060157 693.735815 0.661123 522.376881 0.661123 351.035776 0.661123 211.639484 140.060159 211.639484 311.40949 211.640858 573.085109 494.225783 840.090576 506.25429 851.334557L506.25429 851.334557Z" p-id="10891" fill="#7cba59"></path></svg>