<?xml version="1.0" standalone="no"?><!DOCTYPE svg PUBLIC "-//W3C//DTD SVG 1.1//EN" "http://www.w3.org/Graphics/SVG/1.1/DTD/svg11.dtd"><svg t="1481117274708" class="icon" style="" viewBox="0 0 1024 1024" version="1.1" xmlns="http://www.w3.org/2000/svg" p-id="2474" xmlns:xlink="http://www.w3.org/1999/xlink" width="200" height="200"><defs><style type="text/css"></style></defs><path d="M509.060363 1012.982982c-275.001707 0-498.731909-223.783169-498.731909-498.784876s223.730202-498.731909 498.731909-498.731909 498.784876 223.730202 498.784876 498.731909S784.06207 1012.982982 509.060363 1012.982982zM509.060363 41.949413c-260.382972 0-472.248694 211.865722-472.248694 472.248694 0 260.435939 211.865722 472.30166 472.248694 472.30166 260.435939 0 472.30166-211.865722 472.30166-472.30166C981.362023 253.815135 769.496302 41.949413 509.060363 41.949413z" p-id="2475" fill="#d81e06"></path><path d="M387.608338 785.439197 368.858222 766.742047 623.467853 512.132416 366.527699 255.192262 385.277815 236.495112 660.915119 512.132416Z" p-id="2476" fill="#d81e06"></path></svg>