<?xml version="1.0" standalone="no"?><!DOCTYPE svg PUBLIC "-//W3C//DTD SVG 1.1//EN" "http://www.w3.org/Graphics/SVG/1.1/DTD/svg11.dtd"><svg t="1490904251238" class="icon" style="" viewBox="0 0 1024 1024" version="1.1" xmlns="http://www.w3.org/2000/svg" p-id="2673" xmlns:xlink="http://www.w3.org/1999/xlink" width="32" height="32"><defs><style type="text/css"></style></defs><path d="M608.746012 102.4c-8.795092 0-16.333742-5.653988-18.218405-14.44908L575.450307 23.872393c-2.512883-10.051534 3.769325-20.103067 13.820859-22.615951C599.95092-1.256442 610.002454 5.025767 612.515337 15.077301l15.077301 64.078527c2.512883 10.051534-3.769325 20.103067-13.820859 22.615951-1.884663 0.628221-3.141104 0.628221-5.025767 0.628221z m210.453988 165.850307c-1.256442 0-2.512883 0-3.769325-0.628221L750.723926 254.429448c-10.051534-1.884663-16.961963-11.936196-14.449079-21.98773 1.884663-10.051534 11.936196-16.961963 21.98773-14.44908l64.706748 13.192638c10.051534 1.884663 16.961963 11.936196 14.44908 21.98773-1.884663 8.795092-9.423313 15.077301-18.218405 15.077301zM715.543558 138.208589c-5.653988 0-10.679755-2.512883-14.449079-6.910429-6.910429-8.166871-5.653988-20.103067 2.512883-26.385277l55.283436-45.860122c8.166871-6.910429 20.103067-5.653988 26.385276 2.512883 6.910429 8.166871 5.653988 20.103067-2.512884 26.385276l-55.283435 45.860123c-3.141104 3.141104-7.53865 4.397546-11.936197 4.397546zM452.947239 970.601227l311.597546-113.079755c19.474847-6.910429 34.552147-21.359509 43.34724-39.577914 8.795092-18.846626 9.423313-39.577914 2.512883-58.42454l-20.103068-55.911656c-2.512883-6.910429-10.051534-10.679755-16.961963-8.166871-6.910429 2.512883-10.679755 10.051534-8.166871 16.961963l20.103068 55.911656c4.397546 12.564417 3.769325 26.385276-1.884663 38.321473-5.653988 11.936196-15.705521 21.359509-28.269939 26.385276L405.202454 959.921472c-12.564417 4.397546-26.385276 3.769325-38.949693-1.884662-11.936196-5.653988-21.359509-15.705521-26.385276-28.269939L145.747239 395.779141c-9.423313-26.385276 4.397546-55.283436 30.154601-64.706748l351.175461-126.900614c12.564417-4.397546 26.385276-3.769325 38.321472 1.884663 12.564417 5.653988 21.359509 15.705521 26.385276 28.269938l79.155828 219.24908c2.512883 6.910429 10.051534 10.679755 16.961963 8.166871 6.910429-2.512883 10.679755-10.051534 8.166872-16.961963l-79.155829-219.877301c-6.910429-19.474847-21.359509-34.552147-39.577914-43.347239-18.846626-8.795092-39.577914-9.423313-59.05276-2.512883L167.734969 305.943558C127.528834 320.392638 106.797546 364.368098 121.246626 404.574233l194.120245 533.98773c9.423313 25.757055 31.411043 43.97546 56.539877 49.001227 2.512883 0.628221 8.166871 1.256442 10.051534 1.256442h8.795092" fill="#CCCCCC" p-id="2674"></path><path d="M806.635583 406.458896l-20.731289-11.307976c-8.166871-4.397546-20.103067 1.256442-26.385276 13.192638l-170.876073 314.11043c-0.628221 1.256442-1.256442 3.141104-1.256442 4.397546l1.256442 34.552147c-0.628221 0-1.256442 0-1.884663 0.628221l-52.770552 19.474846c-3.141104 1.256442-4.397546 4.397546-3.141104 7.538651 0.628221 2.512883 3.141104 3.769325 5.025767 3.769325 0.628221 0 1.256442 0 1.884662-0.628221l50.88589-18.846626v0.628221c0 3.769325 3.141104 5.653988 6.282208 3.769325l40.206135-24.500613c1.256442-0.628221 2.512883-1.884663 3.141105-3.141104l170.876073-314.11043c6.910429-11.936196 5.653988-25.128834-2.512883-29.52638z m-381.958282 415.882208l-38.949694 14.44908c-1.256442 0.628221-2.512883 1.884663-3.141104 3.141104-0.628221 1.256442-0.628221 3.141104 0 4.397546 0.628221 2.512883 3.141104 3.769325 5.025767 3.769326 0.628221 0 1.256442 0 1.884663-0.628221l38.949693-14.44908c3.141104-1.256442 4.397546-4.397546 3.141104-7.53865-0.628221-1.256442-1.884663-2.512883-3.141104-3.141105s-2.512883-0.628221-3.769325 0z m81.668711-30.154601l-52.770552 19.474847c-3.141104 1.256442-4.397546 4.397546-3.141104 7.53865 0.628221 2.512883 3.141104 3.769325 5.025767 3.769325 0.628221 0 1.256442 0 1.884662-0.628221l52.770552-19.474846c3.141104-1.256442 4.397546-4.397546 3.141105-7.538651-1.256442-3.141104-4.397546-4.397546-6.91043-3.141104z m-156.426994-87.322699c-2.512883 0-4.397546-1.256442-5.025766-3.769325-1.256442-3.141104 0.628221-6.282209 3.141104-7.538651l33.295705-12.564417c3.141104-1.256442 6.282209 0.628221 7.538651 3.141104 1.256442 3.141104-0.628221 6.282209-3.141105 7.538651l-33.295705 12.564417c-1.256442 0.628221-1.884663 0.628221-2.512884 0.628221z m61.565645-23.244172c-2.512883 0-4.397546-1.256442-5.025767-3.769325-1.256442-3.141104 0.628221-6.282209 3.141104-7.538651l52.770552-19.474846c3.141104-1.256442 6.282209 0.628221 7.53865 3.141104 1.256442 3.141104-0.628221 6.282209-3.141104 7.53865l-52.770552 19.474847c-1.256442 0.628221-1.884663 0.628221-2.512883 0.628221z m81.04049-30.154601c-2.512883 0-4.397546-1.256442-5.025766-3.769325-1.256442-3.141104 0.628221-6.282209 3.141104-7.538651l52.770552-19.474846c3.141104-1.256442 6.282209 0.628221 7.53865 3.141104 1.256442 3.141104-0.628221 6.282209-3.141104 7.53865l-52.770552 19.474847c-0.628221 0.628221-1.256442 0.628221-2.512884 0.628221z m81.668712-30.154602c-2.512883 0-4.397546-1.256442-5.025767-3.769325-1.256442-3.141104 0.628221-6.282209 3.141104-7.53865L625.079755 590.527607c3.141104-1.256442 6.282209 0.628221 7.53865 3.141105 1.256442 3.141104-0.628221 6.282209-3.141104 7.53865l-52.770553 19.474847c-1.256442 0.628221-1.884663 0.628221-2.512883 0.62822z" fill="#CCCCCC" p-id="2675"></path></svg>