<?xml version="1.0" standalone="no"?><!DOCTYPE svg PUBLIC "-//W3C//DTD SVG 1.1//EN" "http://www.w3.org/Graphics/SVG/1.1/DTD/svg11.dtd"><svg t="1490933018457" class="icon" style="" viewBox="0 0 1038 1024" version="1.1" xmlns="http://www.w3.org/2000/svg" p-id="1012" xmlns:xlink="http://www.w3.org/1999/xlink" width="202.734375" height="200"><defs><style type="text/css"></style></defs><path d="M160.843185 775.913635c55.458944-41.87161 215.277179-111.467289 215.277179-111.467289l100.888155 186.225541 18.35722-45.159014-28.440992-55.693115 56.854964-55.675102 56.831547 55.675102-28.394158 55.693115 15.377842 44.089031 103.782871-185.155559c0 0 159.859666 69.595678 215.313206 111.465487 21.138453 15.972277 37.126942 39.324548 49.094891 63.604498 57.944761-82.37422 91.986047-182.774218 91.986047-291.136036 0-279.803952-226.82362-506.625771-506.62397-506.625771-279.802151 0-506.625771 226.821819-506.625771 506.625771 0 111.52313 36.069569 214.614295 97.130608 298.296271C124.029672 818.590434 140.311776 791.408563 160.843185 775.913635zM529.05757 138.272685c216.727239 0 217.100112 160.91884 217.100112 251.409794 0 90.508967-86.84689 258.652889-217.096509 258.854637-130.253222 0.189138-217.107317-168.327657-217.107317-258.818611C311.952054 299.21134 312.324927 138.272685 529.05757 138.272685z" p-id="1013" fill="#42bd56"></path></svg>