<?xml version="1.0" standalone="no"?><!DOCTYPE svg PUBLIC "-//W3C//DTD SVG 1.1//EN" "http://www.w3.org/Graphics/SVG/1.1/DTD/svg11.dtd"><svg t="1487663594451" class="icon" style="" viewBox="0 0 1024 1024" version="1.1" xmlns="http://www.w3.org/2000/svg" p-id="4202" xmlns:xlink="http://www.w3.org/1999/xlink" width="200" height="200"><defs><style type="text/css"></style></defs><path d="M533.04071 748.380662l-54.509475-1.930979-0.89437-0.102331c-60.83453-6.869455-118.274754-28.290323-166.110225-61.945841-51.827389-36.467563-89.452311-85.693708-108.808148-142.357242-23.916712-69.988004-20.962427-147.928121-18.10638-223.300762 0.893346-23.566742 1.736551-45.825698 1.736551-67.410296 0-27.644617 23.426549-50.916647 50.818409-50.204425 42.999326 1.107217 77.06826 11.163247 113.38949 27.548426 10.29753-26.618241 24.808012-50.585095 43.322691-71.507614 43.031049-48.634674 80.550571-72.27714 114.700345-72.27714 22.050202 0 46.112224 9.759271 71.514777 29.004591 17.584494 13.3214 35.592636 31.215956 49.41034 49.095161 16.70445 21.630646 29.115108 44.286646 37.569664 68.686359 39.284725-16.587793 77.647451-29.195949 123.271558-30.546713 0.461511-0.014326 0.942465-0.021489 1.424442-0.021489 12.898775 0 25.177426 5.190209 34.574447 14.614859 9.503445 9.531074 14.932084 22.535249 14.893198 35.677571-0.099261 40.23333-0.848321 81.071434-1.573845 120.56389-0.164752 8.975419-0.329505 17.949814-0.487094 26.924209-0.110517 6.368034-0.154519 12.976546-0.197498 19.36914-0.249687 37.620829-0.508583 76.522838-13.334703 114.136503-41.926902 123.156948-159.137417 209.9415-291.661709 215.943191L533.04071 748.380662zM482.001267 699.800223l50.79078 1.801019c113.093754-5.494131 212.920344-79.452563 248.607124-184.28005 10.380418-30.440289 10.612709-65.48341 10.838859-99.373265 0.042979-6.515391 0.088004-13.251815 0.202615-19.874653 0.157589-8.990768 0.322341-17.978467 0.488117-26.965142 0.722454-39.311331 1.468444-79.960123 1.566682-119.832226 0.002047-0.647753-0.384763-1.678222-1.251503-2.547009-0.64059-0.642636-1.233084-0.87595-1.473561-0.87595-46.687322 1.382487-85.043908 17.014512-130.34158 37.307697l-26.234501 11.752672-6.152117-28.080545c-6.16542-28.14706-18.113543-53.420677-36.526915-77.263711-22.451338-29.05064-59.502186-59.932997-83.934644-59.932997-11.090593 0-36.19127 7.341199-79.694063 56.509015-19.638269 22.191418-33.704636 48.825009-41.809221 79.161944l-7.416923 27.759227-25.667589-12.914124c-41.467437-20.86419-74.076112-33.164331-118.042463-34.296107 0 0 0 0 0 0-1.02433 0-2.857071 1.787716-2.857071 3.477194 0 22.469758-0.859577 45.159526-1.77032 69.180616-2.694365 71.109548-5.480828 144.640238 15.628956 206.418256C278.451338 619.148345 370.65532 686.926008 482.001267 699.800223z" p-id="4203" fill="#666"></path><path d="M404.729369 899.876028c-8.116865 0-16.003486-4.233418-20.316721-11.786441-29.735232-52.066843-78.075193-119.133308-139.501194-142.950759-24.964578-9.66922-58.599629-11.19804-87.768973-3.983731-18.058284 4.466732-50.220798 16.412808-62.729693 46.232974-4.992711 11.902074-18.690688 17.502629-30.592762 12.511965-11.903098-4.992711-17.504676-18.689664-12.511965-30.592762 15.129582-36.065404 48.729841-62.178131 94.611821-73.526597 38.588877-9.5454 81.908498-7.385201 115.882264 5.774517 33.357735 12.933567 65.785286 36.411281 96.386234 69.784366 23.531949 25.662473 46.010917 57.145511 66.813708 93.570095 6.40078 11.208273 2.50403 25.484418-8.705266 31.886221C412.642596 898.882398 408.658865 899.876028 404.729369 899.876028z" p-id="4204" fill="#666"></path><path d="M619.268584 899.876028c-3.929496 0-7.91118-0.991584-11.568477-3.080152-11.208273-6.401804-15.106046-20.677948-8.705266-31.886221 20.802792-36.427654 43.282782-67.907623 66.814732-93.570095 30.600949-33.373085 63.028499-56.851822 96.379071-69.78232 33.980929-13.160741 77.302597-15.319917 115.889427-5.776563 45.883003 11.348466 79.483262 37.46017 94.611821 73.528644 4.992711 11.902074-0.60989 25.599028-12.512988 30.591739-11.902074 4.992711-25.600051-0.607844-30.592762-12.511965-12.508895-29.820166-44.670385-41.765219-62.729693-46.232974-29.170366-7.215332-62.805418-5.686513-87.775112 3.985778-61.418838 23.813359-109.7588 90.882893-139.494031 142.948713C635.273093 895.64261 627.385449 899.876028 619.268584 899.876028z" p-id="4205" fill="#666"></path><path d="M907.275044 786.442536" p-id="4206" fill="#666"></path><path d="M512.000512 939.107541c-12.906961 0-23.37129-10.463306-23.37129-23.370267L488.629221 724.990952c0-12.906961 10.464329-23.370267 23.37129-23.370267s23.37129 10.463306 23.37129 23.370267l0 190.746322C535.371802 928.644235 524.907473 939.107541 512.000512 939.107541z" p-id="4207" fill="#666"></path></svg>