<?xml version="1.0" standalone="no"?><!DOCTYPE svg PUBLIC "-//W3C//DTD SVG 1.1//EN" "http://www.w3.org/Graphics/SVG/1.1/DTD/svg11.dtd"><svg t="1487754574563" class="icon" style="" viewBox="0 0 1024 1024" version="1.1" xmlns="http://www.w3.org/2000/svg" p-id="9236" xmlns:xlink="http://www.w3.org/1999/xlink" width="48" height="48"><defs><style type="text/css"></style></defs><path d="M821.76 134.4h-614.4c-42.24 0-76.8 34.56-76.8 76.8v614.4c0 42.24 34.56 76.8 76.8 76.8h614.4c42.24 0 76.8-34.56 76.8-76.8v-614.4c0-42.24-34.56-76.8-76.8-76.8z m38.4 691.2c0 21.76-16.64 38.4-38.4 38.4h-614.4c-21.76 0-38.4-16.64-38.4-38.4v-614.4c0-21.76 16.64-38.4 38.4-38.4h614.4c21.76 0 38.4 16.64 38.4 38.4v614.4z" fill="#cdcdcd" p-id="9237"></path><path d="M668.16 499.2H533.76V364.8c0-10.24-8.96-19.2-19.2-19.2s-19.2 8.96-19.2 19.2V499.2H360.96c-10.24 0-19.2 8.96-19.2 19.2s8.96 19.2 19.2 19.2h134.4v134.4c0 10.24 8.96 19.2 19.2 19.2s19.2-8.96 19.2-19.2V537.6h134.4c10.24 0 19.2-8.96 19.2-19.2S678.4 499.2 668.16 499.2z" fill="#cdcdcd" p-id="9238"></path></svg>