<?xml version="1.0" standalone="no"?><!DOCTYPE svg PUBLIC "-//W3C//DTD SVG 1.1//EN" "http://www.w3.org/Graphics/SVG/1.1/DTD/svg11.dtd"><svg t="1490772468935" class="icon" style="" viewBox="0 0 1024 1024" version="1.1" xmlns="http://www.w3.org/2000/svg" p-id="2169" xmlns:xlink="http://www.w3.org/1999/xlink" width="200" height="200"><defs><style type="text/css"></style></defs><path d="M812.174512 1024l-550.393743 0c-86.289644 0-156.491406-70.202783-156.491406-156.491406 0-4.242363 0.180809-8.596072 0.537318-12.942629 0.987808-12.089662 3.387353-24.050613 7.133258-35.553924 19.217813-77.971425 59.946745-148.956691 117.814702-205.331189 47.489337-46.263516 104.5268-80.724416 166.833251-101.086328-33.016474-19.537548-61.653702-45.852866-84.273168-77.690508-33.144164-46.652714-50.664214-101.63284-50.664214-158.996167 0-151.581992 123.408533-274.902675 275.097784-274.902675 151.609573 0 274.952729 123.320683 274.952729 274.902675 0 56.709556-17.142089 111.170751-49.574255 157.493515-22.854416 32.644642-52.062672 59.609645-85.846305 79.505745 61.936662 20.40073 118.629873 54.745177 165.877111 100.772722 57.863871 56.371433 98.593825 127.36385 117.813681 205.329146 3.742841 11.487988 6.145451 23.445875 7.140409 35.552902 0.353445 4.314891 0.532211 8.667578 0.532211 12.945694C968.665918 953.797217 898.464156 1024 812.174512 1024zM556.138248 990.868095l256.037285 0c68.020821 0 123.3595-55.339701 123.3595-123.360522 0-3.378159-0.141991-6.821695-0.420865-10.235607-0.798827-9.713612-2.74584-19.30362-5.784855-28.498301-0.137905-0.413715-0.258444-0.833558-0.361617-1.25851C893.408665 682.335014 776.896398 567.796319 631.405716 534.483605c-8.427521 2.714173-17.561933-1.700827-20.624443-10.08953-0.683395-1.87142-1.008238-3.786766-1.009259-5.669423-0.005108-6.76449 4.165749-13.11833 10.887336-15.573038l0.111345-0.040861c1.188025-0.434145 2.37605-0.867269 3.557946-1.319801 92.864132-35.648925 155.261499-126.425075 155.261499-225.882083 0-133.313169-108.480073-241.771791-241.821845-241.771791-133.42145 0-241.967922 108.458622-241.967922 241.771791 0 100.914713 63.667113 192.155654 158.42616 227.043548 1.60889 0.59248 3.22391 1.16453 4.844037 1.7233 0.012258 0.004086 0.025538 0.009194 0.037796 0.01328 0.004086 0.001022 0.008172 0.003065 0.012258 0.004086 0.346295 0.119518 0.685438 0.248229 1.018453 0.388177 0.406564 0.102152 0.812107 0.220648 1.216628 0.355488l0.725278 0.243121c0.656836 0.219626 1.314693 0.440274 1.974594 0.65275 0.489307 0.157314 0.967377 0.336079 1.431146 0.532211 0.594523 0.116453 1.188025 0.266616 1.778462 0.450489l0.540383 0.169572c0.385112 0.121561 0.771246 0.244143 1.160444 0.358553 7.216001 2.124757 11.893531 8.728869 11.891488 15.888686 0 1.547599-0.219626 3.120737-0.678288 4.680594-2.58444 8.77688-11.796487 13.79764-20.569281 11.2132-0.587373-0.172636-1.170659-0.355488-1.752924-0.53834l-0.468877-0.14812c-0.535275-0.166507-1.056249-0.358553-1.561901-0.574093-0.638449-0.124625-1.274854-0.288068-1.909217-0.49135-0.78759-0.254358-1.573137-0.516888-2.357663-0.779418l-0.685438-0.229841c-0.399413-0.133819-0.790655-0.279896-1.172702-0.440274-0.454575-0.11441-0.908129-0.24925-1.35964-0.404521-0.791676-0.272745-1.580288-0.547533-2.367878-0.826408-1.158401-0.115432-2.305565-0.353445-3.422084-0.710976-145.492725 33.311693-262.009078 147.852431-297.565045 293.031549-0.104195 0.422908-0.223712 0.842752-0.360596 1.255445-3.04208 9.207961-4.986028 18.794904-5.779747 28.498301-0.28296 3.453751-0.426994 6.896266-0.426994 10.237651 0 68.020821 55.339701 123.360522 123.360522 123.360522L517.817033 990.866052 404.091466 886.266724c-5.158664-4.745971-6.772662-12.223481-4.029887-18.674365l86.667606-203.832623c-26.447094-31.92345-43.212242-76.397267-43.973273-78.439281-0.539361-1.448512-0.874419-2.964444-0.993937-4.504893l-0.244143-3.139124c-0.417801-5.378291 1.809108-10.621741 5.967706-14.056084 27.152962-22.421292 55.952611-33.789763 85.601141-33.789763 1.25851 0 2.505783 0.021452 3.744884 0.061291 0.049033 0.002043 0.098066 0.004086 0.147099 0.006129 0.049033-0.002043 0.098066-0.004086 0.147099-0.006129 1.238079-0.039839 2.488417-0.061291 3.745905-0.061291 29.651595 0 58.454308 11.368471 85.605227 33.789763 4.156556 3.4323 6.383464 8.673707 5.967706 14.048933l-0.2421 3.139124c-0.118496 1.542492-0.453554 3.061489-0.993937 4.511022-0.762052 2.043035-17.525158 46.520938-43.975316 78.441324l86.664541 203.831601c2.742775 6.450884 1.127756 13.929416-4.030909 18.674365L556.138248 990.868095zM435.124152 869.796794l101.853488 93.681346 101.853488-93.681346-86.193622-202.726319c-2.600784-6.115827-1.293241-13.195966 3.320954-17.980755 19.186146-19.8961 34.132993-51.46917 40.647211-66.64688-18.288232-12.9365-36.995285-19.482386-55.736049-19.482386-0.51178 0-1.022539 0.005108-1.529212 0.015323-0.773289 0.079678-1.553728 0.106238-2.341319 0.072528l-0.059248 0.001022c-0.783504 0.029624-1.573137 0.005108-2.349491-0.074571-0.499522-0.009194-1.001087-0.014301-1.505717-0.014301-18.736678 0-37.44271 6.546907-55.730942 19.481364 6.512175 15.173624 21.461066 46.749758 40.647211 66.649945 4.613174 4.784789 5.919695 11.861864 3.318911 17.979733L435.124152 869.796794z" p-id="2170" fill="#d43023"></path></svg>