<?xml version="1.0" standalone="no"?><!DOCTYPE svg PUBLIC "-//W3C//DTD SVG 1.1//EN" "http://www.w3.org/Graphics/SVG/1.1/DTD/svg11.dtd"><svg t="1492246085744" class="icon" style="" viewBox="0 0 1024 1024" version="1.1" xmlns="http://www.w3.org/2000/svg" p-id="4067" xmlns:xlink="http://www.w3.org/1999/xlink" width="200" height="200"><defs><style type="text/css"></style></defs><path d="M883.823935 603.00569l-46.921659 0c-7.612375 27.612894-18.546402 53.772694-32.525788 78.062913l43.35646 43.322691c27.752064 27.751041 27.752064 72.734558 0 100.484575l-25.121144 25.122167c-27.751041 27.752064-72.734558 27.752064-100.485599 0l-43.633776-43.633776c-24.187889 13.770632-50.278103 24.534789-77.750805 32.006971l0 45.50131c0 39.241746-31.800263 71.039963-71.039963 71.039963l-35.501562 0c-39.239699 0-71.073732-31.798217-71.073732-71.039963l0-45.50131c-27.438932-7.473205-53.530171-18.23634-77.751828-32.006971l-43.6348 43.633776c-27.715225 27.752064-72.698742 27.752064-100.449783 0l-25.122167-25.122167c-27.751041-27.750017-27.751041-72.733535 0-100.484575l43.357484-43.322691c-13.979386-24.290219-24.914436-50.450019-32.56058-78.062913l-46.886867 0c-39.239699 0-71.039963-31.800263-71.039963-71.004147l0-35.538401c0-39.239699 31.800263-71.040986 71.039963-71.040986l46.332235 0c7.336082-27.334555 17.85567-53.356208 31.454386-77.507258l-41.696658-41.662889c-27.751041-27.748994-27.751041-72.732511 0-100.484575l25.122167-25.120121c27.751041-27.754111 72.734558-27.754111 100.449783 0l40.866756 40.899502c25.01779-14.56881 52.007491-25.917276 80.520895-33.703613l0-47.716768c0-39.242769 31.834033-71.039963 71.073732-71.039963l35.501562 0c39.239699 0 71.039963 31.797194 71.039963 71.039963l0 47.716768c28.54615 7.785314 55.535851 19.133779 80.519872 33.703613l40.865733-40.899502c27.751041-27.754111 72.734558-27.754111 100.485599 0l25.121144 25.120121c27.752064 27.752064 27.752064 72.735581 0 100.484575l-41.695634 41.662889c13.598716 24.152073 24.083511 50.172703 31.453363 77.507258l46.333258 0c39.239699 0 71.037916 31.801287 71.037916 71.040986l0 35.538401C954.861852 571.205427 923.062612 603.00569 883.823935 603.00569zM511.948323 319.956126c-107.890242 0-195.364503 87.475284-195.364503 195.366549 0 107.890242 87.47426 195.364503 195.364503 195.364503 107.892289 0 195.366549-87.47426 195.366549-195.364503C707.314873 407.432433 619.841635 319.956126 511.948323 319.956126zM511.948323 601.896426c-49.030693 0-88.824001-39.721677-88.824001-88.788186 0-49.068556 39.793308-88.790232 88.824001-88.790232 49.03274 0 88.792279 39.720653 88.792279 88.790232C600.740602 562.173726 560.981063 601.896426 511.948323 601.896426z" p-id="4068" fill="#ffffff"></path></svg>