<?xml version="1.0" standalone="no"?><!DOCTYPE svg PUBLIC "-//W3C//DTD SVG 1.1//EN" "http://www.w3.org/Graphics/SVG/1.1/DTD/svg11.dtd"><svg class="icon" style="" viewBox="0 0 1205 1024" version="1.1" xmlns="http://www.w3.org/2000/svg" p-id="3793" xmlns:xlink="http://www.w3.org/1999/xlink" width="235.3515625" height="200"><defs><style type="text/css"><![CDATA[

]]></style></defs><path d="M903.168 48.790588c67.644235 0 131.192471 27.075765 179.049412 76.137412 98.725647 101.345882 98.725647 266.270118 0 367.646118l-470.016 482.484706c-0.240941 0.240941-0.783059 0.813176-2.891294 0.813176l-0.120471 0-7.077647-0.512-6.505412 0.572235c-1.746824 0-2.349176-0.602353-2.56-0.843294l-205.884235-211.034353-264.704-271.480471c-47.887059-49.091765-74.300235-114.356706-74.300235-183.777882s26.383059-134.686118 74.24-183.777882c47.887059-49.121882 111.616-76.197647 179.380706-76.197647s131.433412 27.075765 179.320471 76.197647l58.849882 60.325647 6.776471 6.957176 55.898353 57.223529 55.898353-57.223529 6.896941-7.017412 58.669176-60.295529C771.945412 75.866353 835.523765 48.790588 903.168 48.790588L903.168 48.790588zM888.530824 0c-80.865882 0-161.822118 31.322353-223.563294 93.936941L609.129412 150.588235l-0.030118 0-6.415059 6.535529L596.269176 150.588235l-0.030118 0-55.898353-56.651294C478.509176 31.322353 397.522824 0 316.536471 0c-81.016471 0-162.032941 31.322353-223.804235 93.936941-123.632941 125.199059-123.632941 328.282353 0 453.481412l251.783529 255.126588 0.030118 0 195.794824 198.324706C555.760941 1016.440471 575.849412 1024 596.058353 1024c2.258824 0 4.487529-0.120471 6.746353-0.301176C605.003294 1023.879529 607.262118 1024 609.490824 1024c20.118588 0 40.207059-7.559529 55.567059-23.130353L1112.124235 547.448471c123.452235-125.289412 123.452235-328.282353 0-453.481412C1050.352941 31.322353 969.426824 0 888.530824 0L888.530824 0z" p-id="3794" fill="#515151"></path></svg>