<?xml version="1.0" standalone="no"?><!DOCTYPE svg PUBLIC "-//W3C//DTD SVG 1.1//EN" "http://www.w3.org/Graphics/SVG/1.1/DTD/svg11.dtd"><svg t="1481594234142" class="icon" style="" viewBox="0 0 1024 1024" version="1.1" xmlns="http://www.w3.org/2000/svg" p-id="3565" xmlns:xlink="http://www.w3.org/1999/xlink" width="200" height="200"><defs><style type="text/css"></style></defs><path d="M970.281029 349.933881 421.772534 631.29499c-72.671113 50.525744-100.235912 0-100.235912 0L241.350348 472.235344c-55.770188-85.941348 20.050662-79.513962 20.050662-79.513962 106.919125 104.377232 140.320862 119.27964 140.320862 119.27964l501.228679-258.449283 4.988618 3.965312C818.559513 158.831448 674.736896 94.491071 511.999488 94.491071c-271.272333 0-491.186975 178.023556-491.186975 397.618926 0 129.479957 76.79606 244.154719 195.147562 316.761364l-34.760688 120.638591 133.333728-73.453942c60.454884 21.537526 127.162168 33.689287 197.466374 33.689287 271.272333 0 491.186975-178.023556 491.186975-397.634276C1003.186464 441.951621 991.226061 394.143779 970.281029 349.933881zM962.254216 512c-26.830065 103.353926-73.310679 174.98536-147.180084 229.636051-66.38699 49.102325-201.735607 93.776803-274.021957 94.720292-86.62901 1.119497-170.380482-20.114107-220.075301-28.061103l-81.864496 53.867862 13.654998-80.809467C144.072815 715.669656 62.623781 608.270601 62.623781 491.118414c0-198.681038 210.704886-354.87952 459.83185-354.87952 149.4508 0 218.203674 28.013007 300.292274 117.312846 0 0-258.288624 128.057561-360.875071 178.918949-44.13008 21.889543-59.127655 22.496363-80.18525 0C366.178355 415.905408 298.655496 366.499162 301.502333 372.830357c-6.299473-10.025331-69.152986-38.533618-100.252285 0-13.430894 16.645099-21.921265 30.955013-20.050662 59.639309l100.252285 218.699977c0 0 44.99375 105.720833 160.371524 19.874653l506.792395-266.778996C958.385095 436.818717 972.726731 471.643873 962.254216 512z" p-id="3566" fill="#12b577"></path></svg>