<?xml version="1.0" standalone="no"?><!DOCTYPE svg PUBLIC "-//W3C//DTD SVG 1.1//EN" "http://www.w3.org/Graphics/SVG/1.1/DTD/svg11.dtd"><svg t="1487664884254" class="icon" style="" viewBox="0 0 1024 1024" version="1.1" xmlns="http://www.w3.org/2000/svg" p-id="5544" xmlns:xlink="http://www.w3.org/1999/xlink" width="200" height="200"><defs><style type="text/css"></style></defs><path d="M831.15283 722.168674 565.853535 722.168674l42.263569-65.777099 180.772156 0L831.15283 722.168674zM469.100958 63.74379c-126.69554 0-229.402737 102.707197-229.402737 229.402737s118.623701-45.288462 245.319242-45.288462 213.486232 171.984003 213.486232 45.288462S595.796498 63.74379 469.100958 63.74379zM541.302373 935.63444 541.302373 711.062731l-0.019443 0 53.903677-78.466096 206.635197 0 53.903677 78.466096-0.020466 0 0 171.533748c27.182083-35.486212 43.411719-87.435375 43.411719-163.348322 0-91.164303-135.950322-137.319505-260.089643-177.872107-8.260128-2.700505-21.23565-21.633716-32.773428-35.826973 41.048905-40.216957 71.38891-95.361905 84.702124-151.593604-23.602557 31.249725-101.07093-86.423325-205.939349-86.423325-109.470227 0-212.845643 128.244826-238.950184 81.427544 12.998035 59.598376 45.340651 118.437459 89.446171 160.081928-5.979178 12.564154-11.132548 27.555589-19.900236 32.335453-105.444541 57.464783-188.365088 172.343183-188.365088 261.83131 0 130.61378 152.323221 146.141428 340.222705 146.141428 105.359606 0 228.261751 20.36891 315.922253-13.71435L541.302373 935.635463zM831.15283 739.478921 565.853535 739.478921l0 174.002986 265.299295 0L831.15283 739.478921z" p-id="5545" fill="#ff4055"></path></svg>