<?xml version="1.0" standalone="no"?><!DOCTYPE svg PUBLIC "-//W3C//DTD SVG 1.1//EN" "http://www.w3.org/Graphics/SVG/1.1/DTD/svg11.dtd"><svg t="1487665216843" class="icon" style="" viewBox="0 0 1026 1024" version="1.1" xmlns="http://www.w3.org/2000/svg" p-id="7010" xmlns:xlink="http://www.w3.org/1999/xlink" width="200.390625" height="200"><defs><style type="text/css"></style></defs><path d="M569.532042 956.11889c0 110.024377-84.387028 53.220907-84.387028 53.220907L119.726943 701.902635 63.291946 701.902635C28.322178 701.902635 0 673.057894 0 637.473447L0 379.806944c0-35.592822 28.322178-64.422488 63.291946-64.422488l67.502588 0L485.145014 14.775769c0 0 84.393727-57.264061 84.393727 53.676474l0 887.675021-0.0067 0L569.532042 956.11889 569.532042 956.11889zM759.364332 680.415631c105.480435-85.884368 98.442599-248.729357 0-322.090666-38.656173-23.252324-63.270172 53.688198-63.270172 53.688198s98.4292 123.470294 0 214.725994C676.74765 651.79365 713.668649 703.688054 759.364332 680.415631L759.364332 680.415631 759.364332 680.415631zM812.104549 175.816915c-14.063946-12.536458-82.609983 33.998338-42.183465 75.143379 209.170425 177.160167 212.677619 343.57097 0 526.089069-31.651835 30.41745 10.529955 87.693236 42.183465 75.143379C1102.121311 717.979784 1089.841109 301.069278 812.104549 175.816915L812.104549 175.816915 812.104549 175.816915z" p-id="7011" fill="#ffac2d"></path></svg>