<?xml version="1.0" standalone="no"?><!DOCTYPE svg PUBLIC "-//W3C//DTD SVG 1.1//EN" "http://www.w3.org/Graphics/SVG/1.1/DTD/svg11.dtd"><svg t="1481594198564" class="icon" style="" viewBox="0 0 1024 1024" version="1.1" xmlns="http://www.w3.org/2000/svg" p-id="2075" xmlns:xlink="http://www.w3.org/1999/xlink" width="200" height="200"><defs><style type="text/css"></style></defs><path d="M909.319098 836.370669 114.667599 836.370669c-27.229155 0-49.377594-22.160719-49.377594-49.389874L65.290005 237.018182c0-27.235294 22.148439-49.389874 49.377594-49.389874l794.651498 0c27.229155 0 49.389874 22.154579 49.389874 49.389874l0 549.962613C958.708971 814.20995 936.548252 836.370669 909.319098 836.370669zM114.667599 213.57833c-12.924357 0-23.427572 10.516518-23.427572 23.440875l0 549.962613c0 12.924357 10.504238 23.440875 23.427572 23.440875l794.651498 0c12.924357 0 23.440875-10.516518 23.440875-23.440875L932.759973 237.018182c0-12.924357-10.516518-23.440875-23.440875-23.440875L114.667599 213.577307z" p-id="2076" fill="#13227a"></path><path d="M69.105914 270.784216l883.113249 0 0 25.582655-883.113249 0 0-25.582655Z" p-id="2077" fill="#13227a"></path><path d="M69.105914 451.909413l883.113249 0 0 25.582655-883.113249 0 0-25.582655Z" p-id="2078" fill="#13227a"></path><path d="M750.841608 284.706068l22.756178 12.454675-95.429017 174.360204-22.756178-12.454675 95.429017-174.360204Z" p-id="2079" fill="#13227a"></path><path d="M756.017596 471.748251 733.488487 458.875059 833.155441 284.507776 855.68455 297.381991Z" p-id="2080" fill="#13227a"></path><path d="M406.484851 607.451956 121.04075 607.451956c-7.17133 0-12.974499-5.619998-12.974499-12.791327s5.803169-12.791327 12.974499-12.791327l285.444101 0c7.17133 0 12.974499 5.619998 12.974499 12.791327S413.657204 607.451956 406.484851 607.451956z" p-id="2081" fill="#13227a"></path><path d="M276.737812 672.943552 121.04075 672.943552c-7.17133 0-12.974499-6.131651-12.974499-13.302981s5.803169-13.302981 12.974499-13.302981l155.697061 0c7.17133 0 12.974499 6.131651 12.974499 13.302981S283.909142 672.943552 276.737812 672.943552z" p-id="2082" fill="#13227a"></path></svg>