<?xml version="1.0" standalone="no"?><!DOCTYPE svg PUBLIC "-//W3C//DTD SVG 1.1//EN" "http://www.w3.org/Graphics/SVG/1.1/DTD/svg11.dtd"><svg t="1487665771839" class="icon" style="" viewBox="0 0 1024 1024" version="1.1" xmlns="http://www.w3.org/2000/svg" p-id="13348" xmlns:xlink="http://www.w3.org/1999/xlink" width="200" height="200"><defs><style type="text/css"></style></defs><path d="M171.936931 685.841304l-30.712489-47.926546-20.72809 275.760554c-0.064468 11.010775 12.4301 23.263843 23.304775 23.302729l116.51569 0-21.954011-42.983977L171.936931 685.841304zM236.164744 642.99752l-57.422827-49.030693L297.622468 943.945733c5.629207 13.56904 21.071921 19.941168 34.480302 14.253632l153.986093-54.856375-28.434609-31.617092L236.164744 642.99752zM949.877839 529.048281 501.034251 74.751494 155.450445 74.751494c-25.740244 0-46.606481 20.866237-46.606481 46.606481l0.851391 346.842473c0 0 5.192256 8.246825 8.584516 11.675924l440.140369 444.714548c12.709463 12.841469 33.32192 12.841469 46.054919 0L949.877839 575.603597C962.588325 562.740638 962.588325 541.913287 949.877839 529.048281zM295.351752 319.436286c-45.031613 0-81.536015-33.920554-81.536015-75.764568 0-41.84299 36.504402-75.764568 81.536015-75.764568 45.030589 0 81.533968 33.921577 81.533968 75.764568C376.885719 285.515732 340.382341 319.436286 295.351752 319.436286z" p-id="13349" fill="#2384e8"></path></svg>