<?xml version="1.0" standalone="no"?><!DOCTYPE svg PUBLIC "-//W3C//DTD SVG 1.1//EN" "http://www.w3.org/Graphics/SVG/1.1/DTD/svg11.dtd"><svg t="1482318220516" class="icon" style="" viewBox="0 0 1024 1024" version="1.1" xmlns="http://www.w3.org/2000/svg" p-id="5701" xmlns:xlink="http://www.w3.org/1999/xlink" width="128" height="128"><defs><style type="text/css"></style></defs><path d="M277.692568 416.656256c-45.197366 0-81.965757-36.774412-81.965757-81.971778s36.768391-81.965757 81.965757-81.965757 81.965757 36.768391 81.965757 81.965757S322.889934 416.656256 277.692568 416.656256zM277.692568 274.802634c-33.017498 0-59.881844 26.864346-59.881844 59.881844s26.864346 59.881844 59.881844 59.881844 59.881844-26.864346 59.881844-59.881844S310.710066 274.802634 277.692568 274.802634z" p-id="5702" fill="#8a8a8a"></path><path d="M135.844967 724.000753c-3.359548 0-6.670931-1.523236-8.844403-4.41317-3.660583-4.882785-2.667168-11.806585 2.209595-15.467168l189.140169-141.847601c4.395108-3.299341 10.54826-2.859831 14.431609 1.029539l86.758231 86.758231 228.611853-228.617874c4.142239-4.142239 11.475447-4.142239 15.617686 0l236.426717 236.426717c4.316839 4.316839 4.316839 11.300847 0 15.617686-4.316839 4.316839-11.300847 4.316839-15.617686 0L655.960865 444.869238l-228.611853 228.611853c-4.142239 4.142239-11.475447 4.142239-15.617686 0L323.943556 585.6873l-181.475823 136.103857C140.480903 723.28429 138.156914 724.000753 135.844967 724.000753z" p-id="5703" fill="#8a8a8a"></path><path d="M896.367262 924.959548 122.792098 924.959548c-35.172907 0-63.783255-26.587394-63.783255-59.273754L59.008843 158.314205c0-32.686359 28.610348-59.273754 63.783255-59.273754l773.575165 0c35.172907 0 63.789276 26.587394 63.789276 59.273754l0 707.37159C960.156538 898.372154 931.540169 924.959548 896.367262 924.959548zM122.792098 121.130386c-22.993039 0-41.699341 16.683349-41.699341 37.183819l0 707.37159c0 20.506491 18.706303 37.183819 41.699341 37.183819l773.575165 0c22.993039 0 41.699341-16.683349 41.699341-37.183819L938.066604 158.314205c0-20.506491-18.706303-37.183819-41.699341-37.183819L122.792098 121.130386z" p-id="5704" fill="#8a8a8a"></path></svg>