<?xml version="1.0" standalone="no"?><!DOCTYPE svg PUBLIC "-//W3C//DTD SVG 1.1//EN" "http://www.w3.org/Graphics/SVG/1.1/DTD/svg11.dtd"><svg t="1481594253283" class="icon" style="" viewBox="0 0 1024 1024" version="1.1" xmlns="http://www.w3.org/2000/svg" p-id="4284" xmlns:xlink="http://www.w3.org/1999/xlink" width="200" height="200"><defs><style type="text/css"></style></defs><path d="M592.151 577.979s73.679-136.052 73.679-192.741l-178.843 0.208-0.033-64.454h222.325v-37.792h-222.348l-0.054-101.161h-106.375v101.161h-226.629v37.792h226.635v64.367h-185.123l0.049 35.777h358.935s-42.506 127.55-52.893 128.494c-10.393 0.945-295.682-122.547-413.724-3.779-105.792 106.447-15.111 268.326 122.793 273.995 137.904 5.669 226.694-51.965 326.822-158.729 309.822 140.777 370.273 160.618 370.273 160.618s60.866-89.238 77.453-126.605c-51.009 10.398-392.943-117.151-392.943-117.151zM151.983 749.939c-62.341-23.62-124.683-112.432-30.223-171.955 96.966-61.107 218.196-12.283 332.486 45.35-114.294 143.605-239.922 150.22-302.263 126.605z" p-id="4285" fill="#1296db"></path></svg>